<?xml version="1.0" encoding="utf-8"?>
<!-- Generator: Adobe Illustrator 25.0.0, SVG Export Plug-In . SVG Version: 6.00 Build 0)  -->
<svg version="1.1" id="Layer_1" xmlns="http://www.w3.org/2000/svg" xmlns:xlink="http://www.w3.org/1999/xlink" x="0px" y="0px"
	 viewBox="0 0 470.3 540" style="enable-background:new 0 0 470.3 540;" xml:space="preserve">
<style type="text/css">
	.st0{opacity:0.2;}
	.st1{fill:#FFFFFF;fill-opacity:0;}
	.st2{opacity:4.975124e-03;fill:#FEFEFE;enable-background:new    ;}
	.st3{opacity:9.950249e-03;fill:#FCFCFC;enable-background:new    ;}
	.st4{opacity:1.492537e-02;fill:#FBFBFB;enable-background:new    ;}
	.st5{opacity:1.990050e-02;fill:#FAFAFA;enable-background:new    ;}
	.st6{opacity:2.487562e-02;fill:#F9F9F9;enable-background:new    ;}
	.st7{opacity:2.985075e-02;fill:#F7F7F7;enable-background:new    ;}
	.st8{opacity:3.482587e-02;fill:#F6F6F6;enable-background:new    ;}
	.st9{opacity:3.980099e-02;fill:#F5F5F5;enable-background:new    ;}
	.st10{opacity:4.477612e-02;fill:#F4F4F4;enable-background:new    ;}
	.st11{opacity:4.975124e-02;fill:#F2F2F2;enable-background:new    ;}
	.st12{opacity:5.472637e-02;fill:#F1F1F1;enable-background:new    ;}
	.st13{opacity:5.970149e-02;fill:#F0F0F0;enable-background:new    ;}
	.st14{opacity:6.467662e-02;fill:#EFEFEF;enable-background:new    ;}
	.st15{opacity:6.965174e-02;fill:#EDEDED;enable-background:new    ;}
	.st16{opacity:7.462686e-02;fill:#ECECEC;enable-background:new    ;}
	.st17{opacity:7.960199e-02;fill:#EBEBEB;enable-background:new    ;}
	.st18{opacity:8.457711e-02;fill:#E9E9E9;enable-background:new    ;}
	.st19{opacity:8.955224e-02;fill:#E8E8E8;enable-background:new    ;}
	.st20{opacity:9.452736e-02;fill:#E7E7E7;enable-background:new    ;}
	.st21{opacity:9.950249e-02;fill:#E6E6E6;enable-background:new    ;}
	.st22{opacity:0.1045;fill:#E4E4E4;enable-background:new    ;}
	.st23{opacity:0.1095;fill:#E3E3E3;enable-background:new    ;}
	.st24{opacity:0.1144;fill:#E2E2E2;enable-background:new    ;}
	.st25{opacity:0.1194;fill:#E1E1E1;enable-background:new    ;}
	.st26{opacity:0.1244;fill:#DFDFDF;enable-background:new    ;}
	.st27{opacity:0.1294;fill:#DEDEDE;enable-background:new    ;}
	.st28{opacity:0.1343;fill:#DDDDDD;enable-background:new    ;}
	.st29{opacity:0.1393;fill:#DBDBDB;enable-background:new    ;}
	.st30{opacity:0.1443;fill:#DADADA;enable-background:new    ;}
	.st31{opacity:0.1493;fill:#D9D9D9;enable-background:new    ;}
	.st32{opacity:0.1542;fill:#D8D8D8;enable-background:new    ;}
	.st33{opacity:0.1592;fill:#D6D6D6;enable-background:new    ;}
	.st34{opacity:0.1642;fill:#D5D5D5;enable-background:new    ;}
	.st35{opacity:0.1692;fill:#D4D4D4;enable-background:new    ;}
	.st36{opacity:0.1741;fill:#D3D3D3;enable-background:new    ;}
	.st37{opacity:0.1791;fill:#D1D1D1;enable-background:new    ;}
	.st38{opacity:0.1841;fill:#D0D0D0;enable-background:new    ;}
	.st39{opacity:0.1891;fill:#CFCFCF;enable-background:new    ;}
	.st40{opacity:0.194;fill:#CECECE;enable-background:new    ;}
	.st41{opacity:0.199;fill:#CCCCCC;enable-background:new    ;}
	.st42{opacity:0.204;fill:#CBCBCB;enable-background:new    ;}
	.st43{opacity:0.209;fill:#CACACA;enable-background:new    ;}
	.st44{opacity:0.2139;fill:#C8C8C8;enable-background:new    ;}
	.st45{opacity:0.2189;fill:#C7C7C7;enable-background:new    ;}
	.st46{opacity:0.2239;fill:#C6C6C6;enable-background:new    ;}
	.st47{opacity:0.2289;fill:#C5C5C5;enable-background:new    ;}
	.st48{opacity:0.2338;fill:#C3C3C3;enable-background:new    ;}
	.st49{opacity:0.2388;fill:#C2C2C2;enable-background:new    ;}
	.st50{opacity:0.2438;fill:#C1C1C1;enable-background:new    ;}
	.st51{opacity:0.2488;fill:#C0C0C0;enable-background:new    ;}
	.st52{opacity:0.2537;fill:#BEBEBE;enable-background:new    ;}
	.st53{opacity:0.2587;fill:#BDBDBD;enable-background:new    ;}
	.st54{opacity:0.2637;fill:#BCBCBC;enable-background:new    ;}
	.st55{opacity:0.2687;fill:#BABABA;enable-background:new    ;}
	.st56{opacity:0.2736;fill:#B9B9B9;enable-background:new    ;}
	.st57{opacity:0.2786;fill:#B8B8B8;enable-background:new    ;}
	.st58{opacity:0.2836;fill:#B7B7B7;enable-background:new    ;}
	.st59{opacity:0.2886;fill:#B5B5B5;enable-background:new    ;}
	.st60{opacity:0.2935;fill:#B4B4B4;enable-background:new    ;}
	.st61{opacity:0.2985;fill:#B3B3B3;enable-background:new    ;}
	.st62{opacity:0.3035;fill:#B2B2B2;enable-background:new    ;}
	.st63{opacity:0.3085;fill:#B0B0B0;enable-background:new    ;}
	.st64{opacity:0.3134;fill:#AFAFAF;enable-background:new    ;}
	.st65{opacity:0.3184;fill:#AEAEAE;enable-background:new    ;}
	.st66{opacity:0.3234;fill:#ADADAD;enable-background:new    ;}
	.st67{opacity:0.3284;fill:#ABABAB;enable-background:new    ;}
	.st68{opacity:0.3333;fill:#AAAAAA;enable-background:new    ;}
	.st69{opacity:0.3383;fill:#A9A9A9;enable-background:new    ;}
	.st70{opacity:0.3433;fill:#A7A7A7;enable-background:new    ;}
	.st71{opacity:0.3483;fill:#A6A6A6;enable-background:new    ;}
	.st72{opacity:0.3532;fill:#A5A5A5;enable-background:new    ;}
	.st73{opacity:0.3582;fill:#A4A4A4;enable-background:new    ;}
	.st74{opacity:0.3632;fill:#A2A2A2;enable-background:new    ;}
	.st75{opacity:0.3682;fill:#A1A1A1;enable-background:new    ;}
	.st76{opacity:0.3731;fill:#A0A0A0;enable-background:new    ;}
	.st77{opacity:0.3781;fill:#9F9F9F;enable-background:new    ;}
	.st78{opacity:0.3831;fill:#9D9D9D;enable-background:new    ;}
	.st79{opacity:0.3881;fill:#9C9C9C;enable-background:new    ;}
	.st80{opacity:0.393;fill:#9B9B9B;enable-background:new    ;}
	.st81{opacity:0.398;fill:#9A9A9A;enable-background:new    ;}
	.st82{opacity:0.403;fill:#989898;enable-background:new    ;}
	.st83{opacity:0.408;fill:#979797;enable-background:new    ;}
	.st84{opacity:0.4129;fill:#969696;enable-background:new    ;}
	.st85{opacity:0.4179;fill:#949494;enable-background:new    ;}
	.st86{opacity:0.4229;fill:#939393;enable-background:new    ;}
	.st87{opacity:0.4279;fill:#929292;enable-background:new    ;}
	.st88{opacity:0.4328;fill:#919191;enable-background:new    ;}
	.st89{opacity:0.4378;fill:#8F8F8F;enable-background:new    ;}
	.st90{opacity:0.4428;fill:#8E8E8E;enable-background:new    ;}
	.st91{opacity:0.4478;fill:#8D8D8D;enable-background:new    ;}
	.st92{opacity:0.4527;fill:#8C8C8C;enable-background:new    ;}
	.st93{opacity:0.4577;fill:#8A8A8A;enable-background:new    ;}
	.st94{opacity:0.4627;fill:#898989;enable-background:new    ;}
	.st95{opacity:0.4677;fill:#888888;enable-background:new    ;}
	.st96{opacity:0.4726;fill:#868686;enable-background:new    ;}
	.st97{opacity:0.4776;fill:#858585;enable-background:new    ;}
	.st98{opacity:0.4826;fill:#848484;enable-background:new    ;}
	.st99{opacity:0.4876;fill:#838383;enable-background:new    ;}
	.st100{opacity:0.4925;fill:#818181;enable-background:new    ;}
	.st101{opacity:0.4975;fill:#808080;enable-background:new    ;}
	.st102{opacity:0.5025;fill:#7F7F7F;enable-background:new    ;}
	.st103{opacity:0.5075;fill:#7E7E7E;enable-background:new    ;}
	.st104{opacity:0.5124;fill:#7C7C7C;enable-background:new    ;}
	.st105{opacity:0.5174;fill:#7B7B7B;enable-background:new    ;}
	.st106{opacity:0.5224;fill:#7A7A7A;enable-background:new    ;}
	.st107{opacity:0.5274;fill:#797979;enable-background:new    ;}
	.st108{opacity:0.5323;fill:#777777;enable-background:new    ;}
	.st109{opacity:0.5373;fill:#767676;enable-background:new    ;}
	.st110{opacity:0.5423;fill:#757575;enable-background:new    ;}
	.st111{opacity:0.5473;fill:#737373;enable-background:new    ;}
	.st112{opacity:0.5522;fill:#727272;enable-background:new    ;}
	.st113{opacity:0.5572;fill:#717171;enable-background:new    ;}
	.st114{opacity:0.5622;fill:#707070;enable-background:new    ;}
	.st115{opacity:0.5672;fill:#6E6E6E;enable-background:new    ;}
	.st116{opacity:0.5721;fill:#6D6D6D;enable-background:new    ;}
	.st117{opacity:0.5771;fill:#6C6C6C;enable-background:new    ;}
	.st118{opacity:0.5821;fill:#6B6B6B;enable-background:new    ;}
	.st119{opacity:0.5871;fill:#696969;enable-background:new    ;}
	.st120{opacity:0.592;fill:#686868;enable-background:new    ;}
	.st121{opacity:0.597;fill:#676767;enable-background:new    ;}
	.st122{opacity:0.602;fill:#656565;enable-background:new    ;}
	.st123{opacity:0.607;fill:#646464;enable-background:new    ;}
	.st124{opacity:0.6119;fill:#636363;enable-background:new    ;}
	.st125{opacity:0.6169;fill:#626262;enable-background:new    ;}
	.st126{opacity:0.6219;fill:#606060;enable-background:new    ;}
	.st127{opacity:0.6269;fill:#5F5F5F;enable-background:new    ;}
	.st128{opacity:0.6318;fill:#5E5E5E;enable-background:new    ;}
	.st129{opacity:0.6368;fill:#5D5D5D;enable-background:new    ;}
	.st130{opacity:0.6418;fill:#5B5B5B;enable-background:new    ;}
	.st131{opacity:0.6468;fill:#5A5A5A;enable-background:new    ;}
	.st132{opacity:0.6517;fill:#595959;enable-background:new    ;}
	.st133{opacity:0.6567;fill:#585858;enable-background:new    ;}
	.st134{opacity:0.6617;fill:#565656;enable-background:new    ;}
	.st135{opacity:0.6667;fill:#555555;enable-background:new    ;}
	.st136{opacity:0.6716;fill:#545454;enable-background:new    ;}
	.st137{opacity:0.6766;fill:#525252;enable-background:new    ;}
	.st138{opacity:0.6816;fill:#515151;enable-background:new    ;}
	.st139{opacity:0.6866;fill:#505050;enable-background:new    ;}
	.st140{opacity:0.6915;fill:#4F4F4F;enable-background:new    ;}
	.st141{opacity:0.6965;fill:#4D4D4D;enable-background:new    ;}
	.st142{opacity:0.7015;fill:#4C4C4C;enable-background:new    ;}
	.st143{opacity:0.7065;fill:#4B4B4B;enable-background:new    ;}
	.st144{opacity:0.7114;fill:#4A4A4A;enable-background:new    ;}
	.st145{opacity:0.7164;fill:#484848;enable-background:new    ;}
	.st146{opacity:0.7214;fill:#474747;enable-background:new    ;}
	.st147{opacity:0.7264;fill:#464646;enable-background:new    ;}
	.st148{opacity:0.7313;fill:#454545;enable-background:new    ;}
	.st149{opacity:0.7363;fill:#434343;enable-background:new    ;}
	.st150{opacity:0.7413;fill:#424242;enable-background:new    ;}
	.st151{opacity:0.7463;fill:#414141;enable-background:new    ;}
	.st152{opacity:0.7512;fill:#3F3F3F;enable-background:new    ;}
	.st153{opacity:0.7562;fill:#3E3E3E;enable-background:new    ;}
	.st154{opacity:0.7612;fill:#3D3D3D;enable-background:new    ;}
	.st155{opacity:0.7662;fill:#3C3C3C;enable-background:new    ;}
	.st156{opacity:0.7711;fill:#3A3A3A;enable-background:new    ;}
	.st157{opacity:0.7761;fill:#393939;enable-background:new    ;}
	.st158{opacity:0.7811;fill:#383838;enable-background:new    ;}
	.st159{opacity:0.7861;fill:#373737;enable-background:new    ;}
	.st160{opacity:0.791;fill:#353535;enable-background:new    ;}
	.st161{opacity:0.796;fill:#343434;enable-background:new    ;}
	.st162{opacity:0.801;fill:#333333;enable-background:new    ;}
	.st163{opacity:0.806;fill:#313131;enable-background:new    ;}
	.st164{opacity:0.8109;fill:#303030;enable-background:new    ;}
	.st165{opacity:0.8159;fill:#2F2F2F;enable-background:new    ;}
	.st166{opacity:0.8209;fill:#2E2E2E;enable-background:new    ;}
	.st167{opacity:0.8259;fill:#2C2C2C;enable-background:new    ;}
	.st168{opacity:0.8308;fill:#2B2B2B;enable-background:new    ;}
	.st169{opacity:0.8358;fill:#2A2A2A;enable-background:new    ;}
	.st170{opacity:0.8408;fill:#292929;enable-background:new    ;}
	.st171{opacity:0.8458;fill:#272727;enable-background:new    ;}
	.st172{opacity:0.8507;fill:#262626;enable-background:new    ;}
	.st173{opacity:0.8557;fill:#252525;enable-background:new    ;}
	.st174{opacity:0.8607;fill:#242424;enable-background:new    ;}
	.st175{opacity:0.8657;fill:#222222;enable-background:new    ;}
	.st176{opacity:0.8706;fill:#212121;enable-background:new    ;}
	.st177{opacity:0.8756;fill:#202020;enable-background:new    ;}
	.st178{opacity:0.8806;fill:#1E1E1E;enable-background:new    ;}
	.st179{opacity:0.8856;fill:#1D1D1D;enable-background:new    ;}
	.st180{opacity:0.8905;fill:#1C1C1C;enable-background:new    ;}
	.st181{opacity:0.8955;fill:#1B1B1B;enable-background:new    ;}
	.st182{opacity:0.9005;fill:#191919;enable-background:new    ;}
	.st183{opacity:0.9055;fill:#181818;enable-background:new    ;}
	.st184{opacity:0.9104;fill:#171717;enable-background:new    ;}
	.st185{opacity:0.9154;fill:#161616;enable-background:new    ;}
	.st186{opacity:0.9204;fill:#141414;enable-background:new    ;}
	.st187{opacity:0.9254;fill:#131313;enable-background:new    ;}
	.st188{opacity:0.9303;fill:#121212;enable-background:new    ;}
	.st189{opacity:0.9353;fill:#101010;enable-background:new    ;}
	.st190{opacity:0.9403;fill:#0F0F0F;enable-background:new    ;}
	.st191{opacity:0.9453;fill:#0E0E0E;enable-background:new    ;}
	.st192{opacity:0.9502;fill:#0D0D0D;enable-background:new    ;}
	.st193{opacity:0.9552;fill:#0B0B0B;enable-background:new    ;}
	.st194{opacity:0.9602;fill:#0A0A0A;enable-background:new    ;}
	.st195{opacity:0.9652;fill:#090909;enable-background:new    ;}
	.st196{opacity:0.9701;fill:#080808;enable-background:new    ;}
	.st197{opacity:0.9751;fill:#060606;enable-background:new    ;}
	.st198{opacity:0.9801;fill:#050505;enable-background:new    ;}
	.st199{opacity:0.9851;fill:#040404;enable-background:new    ;}
	.st200{opacity:0.99;fill:#030303;enable-background:new    ;}
	.st201{opacity:0.995;fill:#010101;enable-background:new    ;}
	.st202{fill:url(#SVGID_1_);}
</style>
<g class="st0">
	<g>
		<path class="st1" d="M64.1,378.1c43.5-44.2,104.1-71.6,171-71.6c67,0,127.5,27.4,171,71.6l38.1-38.1c18.5-18.5,18.5-48.5,0-67
			L268.7,97.3c-18.5-18.5-48.5-18.5-67,0L26,272.9c-18.5,18.5-18.5,48.5,0,67L64.1,378.1z"/>
		<path class="st1" d="M235.2,395.9c-42.2,0-80.4,17.4-107.8,45.4l74.2,74.2c18.5,18.5,48.5,18.5,67,0l74.2-74.2
			C315.6,413.3,277.4,395.9,235.2,395.9z"/>
	</g>
	<g>
		<path class="st2" d="M64.1,377.8c43.5-44.2,104.1-71.6,171-71.6c67,0,127.5,27.4,171,71.6l38.1-38.1c18.5-18.5,18.5-48.5,0-67
			L268.7,97c-18.5-18.5-48.5-18.5-67,0L26,272.6c-18.5,18.5-18.5,48.5,0,67L64.1,377.8z"/>
		<path class="st2" d="M235.2,395.6c-42.2,0-80.4,17.4-107.8,45.4l74.2,74.2c18.5,18.5,48.5,18.5,67,0l74.2-74.2
			C315.6,413,277.4,395.6,235.2,395.6z"/>
	</g>
	<g>
		<path class="st3" d="M64.1,377.4c43.5-44.2,104.1-71.6,171-71.6c67,0,127.5,27.4,171,71.6l38.1-38.1c18.5-18.5,18.5-48.5,0-67
			L268.7,96.6c-18.5-18.5-48.5-18.5-67,0L26,272.2c-18.5,18.5-18.5,48.5,0,67L64.1,377.4z"/>
		<path class="st3" d="M235.2,395.2c-42.2,0-80.4,17.4-107.8,45.4l74.2,74.2c18.5,18.5,48.5,18.5,67,0l74.2-74.2
			C315.6,412.6,277.4,395.2,235.2,395.2z"/>
	</g>
	<g>
		<path class="st4" d="M64.1,377.1c43.5-44.2,104.1-71.6,171-71.6c67,0,127.5,27.4,171,71.6l38.1-38.1c18.5-18.5,18.5-48.5,0-67
			L268.7,96.3c-18.5-18.5-48.5-18.5-67,0L26,271.9c-18.5,18.5-18.5,48.5,0,67L64.1,377.1z"/>
		<path class="st4" d="M235.2,394.9c-42.2,0-80.4,17.4-107.8,45.4l74.2,74.2c18.5,18.5,48.5,18.5,67,0l74.2-74.2
			C315.6,412.3,277.4,394.9,235.2,394.9z"/>
	</g>
	<g>
		<path class="st5" d="M64.1,376.7c43.5-44.2,104.1-71.6,171-71.6c67,0,127.5,27.4,171,71.6l38.1-38.1c18.5-18.5,18.5-48.5,0-67
			L268.7,95.9c-18.5-18.5-48.5-18.5-67,0L26,271.5C7.5,290,7.5,320,26,338.5L64.1,376.7z"/>
		<path class="st5" d="M235.2,394.5c-42.2,0-80.4,17.4-107.8,45.4l74.2,74.2c18.5,18.5,48.5,18.5,67,0l74.2-74.2
			C315.6,412,277.4,394.5,235.2,394.5z"/>
	</g>
	<g>
		<path class="st6" d="M64.1,376.4c43.5-44.2,104.1-71.6,171-71.6c67,0,127.5,27.4,171,71.6l38.1-38.1c18.5-18.5,18.5-48.5,0-67
			L268.7,95.6c-18.5-18.5-48.5-18.5-67,0L26,271.2c-18.5,18.5-18.5,48.5,0,67L64.1,376.4z"/>
		<path class="st6" d="M235.2,394.2c-42.2,0-80.4,17.4-107.8,45.4l74.2,74.2c18.5,18.5,48.5,18.5,67,0l74.2-74.2
			C315.6,411.6,277.4,394.2,235.2,394.2z"/>
	</g>
	<g>
		<path class="st7" d="M64.1,376c43.5-44.2,104.1-71.6,171-71.6c67,0,127.5,27.4,171,71.6l38.1-38.1c18.5-18.5,18.5-48.5,0-67
			L268.7,95.2c-18.5-18.5-48.5-18.5-67,0L26,270.8c-18.5,18.5-18.5,48.5,0,67L64.1,376z"/>
		<path class="st7" d="M235.2,393.9c-42.2,0-80.4,17.4-107.8,45.4l74.2,74.2c18.5,18.5,48.5,18.5,67,0l74.2-74.2
			C315.6,411.3,277.4,393.9,235.2,393.9z"/>
	</g>
	<g>
		<path class="st8" d="M64.1,375.7c43.5-44.2,104.1-71.6,171-71.6c67,0,127.5,27.4,171,71.6l38.1-38.1c18.5-18.5,18.5-48.5,0-67
			L268.7,94.9c-18.5-18.5-48.5-18.5-67,0L26,270.5C7.5,289,7.5,319,26,337.5L64.1,375.7z"/>
		<path class="st8" d="M235.2,393.5c-42.2,0-80.4,17.4-107.8,45.4l74.2,74.2c18.5,18.5,48.5,18.5,67,0l74.2-74.2
			C315.6,410.9,277.4,393.5,235.2,393.5z"/>
	</g>
	<g>
		<path class="st9" d="M64.1,375.3c43.5-44.2,104.1-71.6,171-71.6c67,0,127.5,27.4,171,71.6l38.1-38.1c18.5-18.5,18.5-48.5,0-67
			L268.7,94.5c-18.5-18.5-48.5-18.5-67,0L26,270.2c-18.5,18.5-18.5,48.5,0,67L64.1,375.3z"/>
		<path class="st9" d="M235.2,393.2c-42.2,0-80.4,17.4-107.8,45.4l74.2,74.2c18.5,18.5,48.5,18.5,67,0l74.2-74.2
			C315.6,410.6,277.4,393.2,235.2,393.2z"/>
	</g>
	<g>
		<path class="st10" d="M64.1,375c43.5-44.2,104.1-71.6,171-71.6c67,0,127.5,27.4,171,71.6l38.1-38.1c18.5-18.5,18.5-48.5,0-67
			L268.7,94.2c-18.5-18.5-48.5-18.5-67,0L26,269.8c-18.5,18.5-18.5,48.5,0,67L64.1,375z"/>
		<path class="st10" d="M235.2,392.8c-42.2,0-80.4,17.4-107.8,45.4l74.2,74.2c18.5,18.5,48.5,18.5,67,0l74.2-74.2
			C315.6,410.2,277.4,392.8,235.2,392.8z"/>
	</g>
	<g>
		<path class="st11" d="M64.1,374.6c43.5-44.2,104.1-71.6,171-71.6c67,0,127.5,27.4,171,71.6l38.1-38.1c18.5-18.5,18.5-48.5,0-67
			L268.7,93.8c-18.5-18.5-48.5-18.5-67,0L26,269.5C7.5,288,7.5,318,26,336.5L64.1,374.6z"/>
		<path class="st11" d="M235.2,392.5c-42.2,0-80.4,17.4-107.8,45.4l74.2,74.2c18.5,18.5,48.5,18.5,67,0l74.2-74.2
			C315.6,409.9,277.4,392.5,235.2,392.5z"/>
	</g>
	<g>
		<path class="st12" d="M64.1,374.3c43.5-44.2,104.1-71.6,171-71.6c67,0,127.5,27.4,171,71.6l38.1-38.1c18.5-18.5,18.5-48.5,0-67
			L268.7,93.5c-18.5-18.5-48.5-18.5-67,0L26,269.1c-18.5,18.5-18.5,48.5,0,67L64.1,374.3z"/>
		<path class="st12" d="M235.2,392.1c-42.2,0-80.4,17.4-107.8,45.4l74.2,74.2c18.5,18.5,48.5,18.5,67,0l74.2-74.2
			C315.6,409.5,277.4,392.1,235.2,392.1z"/>
	</g>
	<g>
		<path class="st13" d="M64.1,373.9c43.5-44.2,104.1-71.6,171-71.6c67,0,127.5,27.4,171,71.6l38.1-38.1c18.5-18.5,18.5-48.5,0-67
			L268.7,93.1c-18.5-18.5-48.5-18.5-67,0L26,268.8c-18.5,18.5-18.5,48.5,0,67L64.1,373.9z"/>
		<path class="st13" d="M235.2,391.8c-42.2,0-80.4,17.4-107.8,45.4l74.2,74.2c18.5,18.5,48.5,18.5,67,0l74.2-74.2
			C315.6,409.2,277.4,391.8,235.2,391.8z"/>
	</g>
	<g>
		<path class="st14" d="M64.1,373.6c43.5-44.2,104.1-71.6,171-71.6c67,0,127.5,27.4,171,71.6l38.1-38.1c18.5-18.5,18.5-48.5,0-67
			L268.7,92.8c-18.5-18.5-48.5-18.5-67,0L26,268.4c-18.5,18.5-18.5,48.5,0,67L64.1,373.6z"/>
		<path class="st14" d="M235.2,391.4c-42.2,0-80.4,17.4-107.8,45.4l74.2,74.2c18.5,18.5,48.5,18.5,67,0l74.2-74.2
			C315.6,408.8,277.4,391.4,235.2,391.4z"/>
	</g>
	<g>
		<path class="st15" d="M64.1,373.2c43.5-44.2,104.1-71.6,171-71.6c67,0,127.5,27.4,171,71.6l38.1-38.1c18.5-18.5,18.5-48.5,0-67
			L268.7,92.4c-18.5-18.5-48.5-18.5-67,0L26,268.1c-18.5,18.5-18.5,48.5,0,67L64.1,373.2z"/>
		<path class="st15" d="M235.2,391.1c-42.2,0-80.4,17.4-107.8,45.4l74.2,74.2c18.5,18.5,48.5,18.5,67,0l74.2-74.2
			C315.6,408.5,277.4,391.1,235.2,391.1z"/>
	</g>
	<g>
		<path class="st16" d="M64.1,372.9c43.6-44.2,104.1-71.7,171.1-71.7s127.5,27.4,171,71.6l38.1-38.1c18.5-18.5,18.5-48.5,0-67
			L268.7,92.1c-18.5-18.5-48.5-18.5-67,0L26,267.7c-18.5,18.5-18.5,48.5,0,67L64.1,372.9z"/>
		<path class="st16" d="M235.2,390.7c-42.2,0-80.4,17.4-107.8,45.4l74.2,74.2c18.5,18.5,48.5,18.5,67,0l74.2-74.2
			C315.6,408.1,277.4,390.7,235.2,390.7z"/>
	</g>
	<g>
		<path class="st17" d="M64.1,372.5c43.5-44.2,104.1-71.6,171-71.6c67,0,127.5,27.4,171,71.6l38.1-38.1c18.5-18.5,18.5-48.5,0-67
			L268.7,91.7c-18.5-18.5-48.5-18.5-67,0L26,267.4c-18.5,18.5-18.5,48.5,0,67L64.1,372.5z"/>
		<path class="st17" d="M235.2,390.4c-42.2,0-80.4,17.4-107.8,45.4l74.2,74.2c18.5,18.5,48.5,18.5,67,0l74.2-74.2
			C315.6,407.8,277.4,390.4,235.2,390.4z"/>
	</g>
	<g>
		<path class="st18" d="M64.1,372.2c43.5-44.2,104.1-71.6,171-71.6c67,0,127.5,27.4,171,71.6l38.1-38.1c18.5-18.5,18.5-48.5,0-67
			L268.7,91.4c-18.5-18.5-48.5-18.5-67,0L26,267c-18.5,18.5-18.5,48.5,0,67L64.1,372.2z"/>
		<path class="st18" d="M235.2,390c-42.2,0-80.4,17.4-107.8,45.4l74.2,74.2c18.5,18.5,48.5,18.5,67,0l74.2-74.2
			C315.6,407.4,277.4,390,235.2,390z"/>
	</g>
	<g>
		<path class="st19" d="M64.1,371.8c43.6-44.2,104.1-71.6,171.1-71.6s127.5,27.4,171,71.6l38.1-38.1c18.5-18.5,18.5-48.5,0-67
			L268.7,91.1c-18.5-18.5-48.5-18.5-67,0L26,266.7c-18.5,18.5-18.5,48.5,0,67L64.1,371.8z"/>
		<path class="st19" d="M235.2,389.7c-42.2,0-80.4,17.4-107.8,45.4l74.2,74.2c18.5,18.5,48.5,18.5,67,0l74.2-74.2
			C315.6,407.1,277.4,389.7,235.2,389.7z"/>
	</g>
	<g>
		<path class="st20" d="M64.1,371.5c43.5-44.2,104.1-71.6,171-71.6c67,0,127.5,27.4,171,71.6l38.1-38.1c18.5-18.5,18.5-48.5,0-67
			L268.7,90.7c-18.5-18.5-48.5-18.5-67,0L26,266.3c-18.5,18.5-18.5,48.5,0,67L64.1,371.5z"/>
		<path class="st20" d="M235.2,389.3c-42.2,0-80.4,17.4-107.8,45.4l74.2,74.2c18.5,18.5,48.5,18.5,67,0l74.2-74.2
			C315.6,406.7,277.4,389.3,235.2,389.3z"/>
	</g>
	<g>
		<path class="st21" d="M64.1,371.2c43.5-44.2,104.1-71.6,171-71.6c67,0,127.5,27.4,171,71.6l38.1-38.1c18.5-18.5,18.5-48.5,0-67
			L268.7,90.4c-18.5-18.5-48.5-18.5-67,0L26,266c-18.5,18.5-18.5,48.5,0,67L64.1,371.2z"/>
		<path class="st21" d="M235.2,389c-42.2,0-80.4,17.4-107.8,45.4l74.2,74.2c18.5,18.5,48.5,18.5,67,0l74.2-74.2
			C315.6,406.4,277.4,389,235.2,389z"/>
	</g>
	<g>
		<path class="st22" d="M64.1,370.8c43.6-44.2,104.1-71.6,171.1-71.6s127.5,27.4,171,71.6l38.1-38.1c18.5-18.5,18.5-48.5,0-67
			L268.7,90c-18.5-18.5-48.5-18.5-67,0L26,265.6c-18.5,18.5-18.5,48.5,0,67L64.1,370.8z"/>
		<path class="st22" d="M235.2,388.6c-42.2,0-80.4,17.4-107.8,45.4l74.2,74.2c18.5,18.5,48.5,18.5,67,0l74.2-74.2
			C315.6,406,277.4,388.6,235.2,388.6z"/>
	</g>
	<g>
		<path class="st23" d="M64.1,370.5c43.5-44.2,104.1-71.6,171-71.6c67,0,127.5,27.4,171,71.6l38.1-38.1c18.5-18.5,18.5-48.5,0-67
			L268.7,89.7c-18.5-18.5-48.5-18.5-67,0L26,265.3c-18.5,18.5-18.5,48.5,0,67L64.1,370.5z"/>
		<path class="st23" d="M235.2,388.3c-42.2,0-80.4,17.4-107.8,45.4l74.2,74.2c18.5,18.5,48.5,18.5,67,0l74.2-74.2
			C315.6,405.7,277.4,388.3,235.2,388.3z"/>
	</g>
	<g>
		<path class="st24" d="M64.1,370.1c43.5-44.2,104.1-71.6,171-71.6c67,0,127.5,27.4,171,71.6l38.1-38.1c18.5-18.5,18.5-48.5,0-67
			L268.7,89.3c-18.5-18.5-48.5-18.5-67,0L26,264.9c-18.5,18.5-18.5,48.5,0,67L64.1,370.1z"/>
		<path class="st24" d="M235.2,387.9c-42.2,0-80.4,17.4-107.8,45.4l74.2,74.2c18.5,18.5,48.5,18.5,67,0l74.2-74.2
			C315.6,405.4,277.4,387.9,235.2,387.9z"/>
	</g>
	<g>
		<path class="st25" d="M64.1,369.8c43.5-44.2,104.1-71.6,171-71.6c67,0,127.5,27.4,171,71.6l38.1-38.1c18.5-18.5,18.5-48.5,0-67
			L268.7,89c-18.5-18.5-48.5-18.5-67,0L26,264.6c-18.5,18.5-18.5,48.5,0,67L64.1,369.8z"/>
		<path class="st25" d="M235.2,387.6c-42.2,0-80.4,17.4-107.8,45.4l74.2,74.2c18.5,18.5,48.5,18.5,67,0l74.2-74.2
			C315.6,405,277.4,387.6,235.2,387.6z"/>
	</g>
	<g>
		<path class="st26" d="M64.1,369.4c43.5-44.2,104.1-71.6,171-71.6c67,0,127.5,27.4,171,71.6l38.1-38.1c18.5-18.5,18.5-48.5,0-67
			L268.7,88.6c-18.5-18.5-48.5-18.5-67,0L26,264.2c-18.5,18.5-18.5,48.5,0,67L64.1,369.4z"/>
		<path class="st26" d="M235.2,387.3c-42.2,0-80.4,17.4-107.8,45.4l74.2,74.2c18.5,18.5,48.5,18.5,67,0l74.2-74.2
			C315.6,404.7,277.4,387.3,235.2,387.3z"/>
	</g>
	<g>
		<path class="st27" d="M64.1,369.1c43.5-44.2,104.1-71.6,171-71.6c67,0,127.5,27.4,171,71.6l38.1-38.1c18.5-18.5,18.5-48.5,0-67
			L268.7,88.3c-18.5-18.5-48.5-18.5-67,0L26,263.9c-18.5,18.5-18.5,48.5,0,67L64.1,369.1z"/>
		<path class="st27" d="M235.2,386.9c-42.2,0-80.4,17.4-107.8,45.4l74.2,74.2c18.5,18.5,48.5,18.5,67,0l74.2-74.2
			C315.6,404.3,277.4,386.9,235.2,386.9z"/>
	</g>
	<g>
		<path class="st28" d="M64.1,368.7c43.5-44.2,104.1-71.6,171-71.6c67,0,127.5,27.4,171,71.6l38.1-38.1c18.5-18.5,18.5-48.5,0-67
			L268.7,87.9c-18.5-18.5-48.5-18.5-67,0L26,263.6c-18.5,18.5-18.5,48.5,0,67L64.1,368.7z"/>
		<path class="st28" d="M235.2,386.6c-42.2,0-80.4,17.4-107.8,45.4l74.2,74.2c18.5,18.5,48.5,18.5,67,0l74.2-74.2
			C315.6,404,277.4,386.6,235.2,386.6z"/>
	</g>
	<g>
		<path class="st29" d="M64.1,368.4c43.5-44.2,104.1-71.6,171-71.6c67,0,127.5,27.4,171,71.6l38.1-38.1c18.5-18.5,18.5-48.5,0-67
			L268.7,87.6c-18.5-18.5-48.5-18.5-67,0L26,263.2c-18.5,18.5-18.5,48.5,0,67L64.1,368.4z"/>
		<path class="st29" d="M235.2,386.2c-42.2,0-80.4,17.4-107.8,45.4l74.2,74.2c18.5,18.5,48.5,18.5,67,0l74.2-74.2
			C315.6,403.6,277.4,386.2,235.2,386.2z"/>
	</g>
	<g>
		<path class="st30" d="M64.1,368c43.5-44.2,104.1-71.6,171-71.6c67,0,127.5,27.4,171,71.6l38.1-38.1c18.5-18.5,18.5-48.5,0-67
			L268.7,87.2c-18.5-18.5-48.5-18.5-67,0L26,262.9c-18.5,18.5-18.5,48.5,0,67L64.1,368z"/>
		<path class="st30" d="M235.2,385.9c-42.2,0-80.4,17.4-107.8,45.4l74.2,74.2c18.5,18.5,48.5,18.5,67,0l74.2-74.2
			C315.6,403.3,277.4,385.9,235.2,385.9z"/>
	</g>
	<g>
		<path class="st31" d="M64.1,367.7c43.5-44.2,104.1-71.6,171-71.6c67,0,127.5,27.4,171,71.6l38.1-38.1c18.5-18.5,18.5-48.5,0-67
			L268.7,86.9c-18.5-18.5-48.5-18.5-67,0L26,262.5C7.5,281,7.5,311,26,329.5L64.1,367.7z"/>
		<path class="st31" d="M235.2,385.5c-42.2,0-80.4,17.4-107.8,45.4l74.2,74.2c18.5,18.5,48.5,18.5,67,0l74.2-74.2
			C315.6,402.9,277.4,385.5,235.2,385.5z"/>
	</g>
	<g>
		<path class="st32" d="M64.1,367.3c43.5-44.2,104.1-71.6,171-71.6c67,0,127.5,27.4,171,71.6l38.1-38.1c18.5-18.5,18.5-48.5,0-67
			L268.7,86.5c-18.5-18.5-48.5-18.5-67,0L26,262.2c-18.5,18.5-18.5,48.5,0,67L64.1,367.3z"/>
		<path class="st32" d="M235.2,385.2c-42.2,0-80.4,17.4-107.8,45.4l74.2,74.2c18.5,18.5,48.5,18.5,67,0l74.2-74.2
			C315.6,402.6,277.4,385.2,235.2,385.2z"/>
	</g>
	<g>
		<path class="st33" d="M64.1,367c43.5-44.2,104.1-71.6,171-71.6c67,0,127.5,27.4,171,71.6l38.1-38.1c18.5-18.5,18.5-48.5,0-67
			L268.7,86.2c-18.5-18.5-48.5-18.5-67,0L26,261.8c-18.5,18.5-18.5,48.5,0,67L64.1,367z"/>
		<path class="st33" d="M235.2,384.8c-42.2,0-80.4,17.4-107.8,45.4l74.2,74.2c18.5,18.5,48.5,18.5,67,0l74.2-74.2
			C315.6,402.2,277.4,384.8,235.2,384.8z"/>
	</g>
	<g>
		<path class="st34" d="M64.1,366.6c43.5-44.2,104.1-71.6,171-71.6c67,0,127.5,27.4,171,71.6l38.1-38.1c18.5-18.5,18.5-48.5,0-67
			L268.7,85.8c-18.5-18.5-48.5-18.5-67,0L26,261.5C7.5,280,7.5,310,26,328.5L64.1,366.6z"/>
		<path class="st34" d="M235.2,384.5c-42.2,0-80.4,17.4-107.8,45.4l74.2,74.2c18.5,18.5,48.5,18.5,67,0l74.2-74.2
			C315.6,401.9,277.4,384.5,235.2,384.5z"/>
	</g>
	<g>
		<path class="st35" d="M64.1,366.3c43.5-44.2,104.1-71.6,171-71.6c67,0,127.5,27.4,171,71.6l38.1-38.1c18.5-18.5,18.5-48.5,0-67
			L268.7,85.5c-18.5-18.5-48.5-18.5-67,0L26,261.1c-18.5,18.5-18.5,48.5,0,67L64.1,366.3z"/>
		<path class="st35" d="M235.2,384.1c-42.2,0-80.4,17.4-107.8,45.4l74.2,74.2c18.5,18.5,48.5,18.5,67,0l74.2-74.2
			C315.6,401.5,277.4,384.1,235.2,384.1z"/>
	</g>
	<g>
		<path class="st36" d="M64.1,365.9c43.5-44.2,104.1-71.6,171-71.6c67,0,127.5,27.4,171,71.6l38.1-38.1c18.5-18.5,18.5-48.5,0-67
			L268.7,85.1c-18.5-18.5-48.5-18.5-67,0L26,260.8c-18.5,18.5-18.5,48.5,0,67L64.1,365.9z"/>
		<path class="st36" d="M235.2,383.8c-42.2,0-80.4,17.4-107.8,45.4l74.2,74.2c18.5,18.5,48.5,18.5,67,0l74.2-74.2
			C315.6,401.2,277.4,383.8,235.2,383.8z"/>
	</g>
	<g>
		<path class="st37" d="M64.1,365.6c43.5-44.2,104.1-71.6,171-71.6c67,0,127.5,27.4,171,71.6l38.1-38.1c18.5-18.5,18.5-48.5,0-67
			L268.7,84.8c-18.5-18.5-48.5-18.5-67,0L26,260.4c-18.5,18.5-18.5,48.5,0,67L64.1,365.6z"/>
		<path class="st37" d="M235.2,383.4c-42.2,0-80.4,17.4-107.8,45.4l74.2,74.2c18.5,18.5,48.5,18.5,67,0l74.2-74.2
			C315.6,400.8,277.4,383.4,235.2,383.4z"/>
	</g>
	<g>
		<path class="st38" d="M64.1,365.2c43.5-44.2,104.1-71.6,171-71.6c67,0,127.5,27.4,171,71.6l38.1-38.1c18.5-18.5,18.5-48.5,0-67
			L268.7,84.5c-18.5-18.5-48.5-18.5-67,0L26,260.1c-18.5,18.5-18.5,48.5,0,67L64.1,365.2z"/>
		<path class="st38" d="M235.2,383.1c-42.2,0-80.4,17.4-107.8,45.4l74.2,74.2c18.5,18.5,48.5,18.5,67,0l74.2-74.2
			C315.6,400.5,277.4,383.1,235.2,383.1z"/>
	</g>
	<g>
		<path class="st39" d="M64.1,364.9c43.5-44.2,104.1-71.6,171-71.6c67,0,127.5,27.4,171,71.6l38.1-38.1c18.5-18.5,18.5-48.5,0-67
			L268.7,84.1c-18.5-18.5-48.5-18.5-67,0L26,259.7c-18.5,18.5-18.5,48.5,0,67L64.1,364.9z"/>
		<path class="st39" d="M235.2,382.7c-42.2,0-80.4,17.4-107.8,45.4l74.2,74.2c18.5,18.5,48.5,18.5,67,0l74.2-74.2
			C315.6,400.1,277.4,382.7,235.2,382.7z"/>
	</g>
	<g>
		<path class="st40" d="M64.1,364.6c43.5-44.2,104.1-71.6,171-71.6c67,0,127.5,27.4,171,71.6l38.1-38.1c18.5-18.5,18.5-48.5,0-67
			L268.7,83.8c-18.5-18.5-48.5-18.5-67,0L26,259.4c-18.5,18.5-18.5,48.5,0,67L64.1,364.6z"/>
		<path class="st40" d="M235.2,382.4c-42.2,0-80.4,17.4-107.8,45.4l74.2,74.2c18.5,18.5,48.5,18.5,67,0l74.2-74.2
			C315.6,399.8,277.4,382.4,235.2,382.4z"/>
	</g>
	<g>
		<path class="st41" d="M64.1,364.2c43.5-44.2,104.1-71.6,171-71.6c67,0,127.5,27.4,171,71.6l38.1-38.1c18.5-18.5,18.5-48.5,0-67
			L268.7,83.4c-18.5-18.5-48.5-18.5-67,0L26,259c-18.5,18.5-18.5,48.5,0,67L64.1,364.2z"/>
		<path class="st41" d="M235.2,382c-42.2,0-80.4,17.4-107.8,45.4l74.2,74.2c18.5,18.5,48.5,18.5,67,0l74.2-74.2
			C315.6,399.4,277.4,382,235.2,382z"/>
	</g>
	<g>
		<path class="st42" d="M64.1,363.9c43.6-44.3,104.1-71.7,171.1-71.7s127.5,27.4,171,71.6l38.1-38.1c18.5-18.5,18.5-48.5,0-67
			L268.7,83.1c-18.5-18.5-48.5-18.5-67,0L26,258.7c-18.5,18.5-18.5,48.5,0,67L64.1,363.9z"/>
		<path class="st42" d="M235.2,381.7c-42.2,0-80.4,17.4-107.8,45.4l74.2,74.2c18.5,18.5,48.5,18.5,67,0l74.2-74.2
			C315.6,399.1,277.4,381.7,235.2,381.7z"/>
	</g>
	<g>
		<path class="st43" d="M64.1,363.5c43.5-44.2,104.1-71.6,171-71.6c67,0,127.5,27.4,171,71.6l38.1-38.1c18.5-18.5,18.5-48.5,0-67
			L268.7,82.7c-18.5-18.5-48.5-18.5-67,0L26,258.3c-18.5,18.5-18.5,48.5,0,67L64.1,363.5z"/>
		<path class="st43" d="M235.2,381.3c-42.2,0-80.4,17.4-107.8,45.4l74.2,74.2c18.5,18.5,48.5,18.5,67,0l74.2-74.2
			C315.6,398.8,277.4,381.3,235.2,381.3z"/>
	</g>
	<g>
		<path class="st44" d="M64.1,363.2c43.5-44.2,104.1-71.6,171-71.6c67,0,127.5,27.4,171,71.6l38.1-38.1c18.5-18.5,18.5-48.5,0-67
			L268.7,82.4c-18.5-18.5-48.5-18.5-67,0L26,258c-18.5,18.5-18.5,48.5,0,67L64.1,363.2z"/>
		<path class="st44" d="M235.2,381c-42.2,0-80.4,17.4-107.8,45.4l74.2,74.2c18.5,18.5,48.5,18.5,67,0l74.2-74.2
			C315.6,398.4,277.4,381,235.2,381z"/>
	</g>
	<g>
		<path class="st45" d="M64.1,362.8c43.6-44.2,104.1-71.6,171.1-71.6s127.5,27.4,171,71.6l38.1-38.1c18.5-18.5,18.5-48.5,0-67
			L268.7,82c-18.5-18.5-48.5-18.5-67,0L26,257.6c-18.5,18.5-18.5,48.5,0,67L64.1,362.8z"/>
		<path class="st45" d="M235.2,380.7c-42.2,0-80.4,17.4-107.8,45.4l74.2,74.2c18.5,18.5,48.5,18.5,67,0l74.2-74.2
			C315.6,398.1,277.4,380.7,235.2,380.7z"/>
	</g>
	<g>
		<path class="st46" d="M64.1,362.5c43.5-44.2,104.1-71.6,171-71.6c67,0,127.5,27.4,171,71.6l38.1-38.1c18.5-18.5,18.5-48.5,0-67
			L268.7,81.7c-18.5-18.5-48.5-18.5-67,0L26,257.3c-18.5,18.5-18.5,48.5,0,67L64.1,362.5z"/>
		<path class="st46" d="M235.2,380.3c-42.2,0-80.4,17.4-107.8,45.4l74.2,74.2c18.5,18.5,48.5,18.5,67,0l74.2-74.2
			C315.6,397.7,277.4,380.3,235.2,380.3z"/>
	</g>
	<g>
		<path class="st47" d="M64.1,362.1c43.5-44.2,104.1-71.6,171-71.6c67,0,127.5,27.4,171,71.6l38.1-38.1c18.5-18.5,18.5-48.5,0-67
			L268.7,81.3c-18.5-18.5-48.5-18.5-67,0L26,257c-18.5,18.5-18.5,48.5,0,67L64.1,362.1z"/>
		<path class="st47" d="M235.2,380c-42.2,0-80.4,17.4-107.8,45.4l74.2,74.2c18.5,18.5,48.5,18.5,67,0l74.2-74.2
			C315.6,397.4,277.4,380,235.2,380z"/>
	</g>
	<g>
		<path class="st48" d="M64.1,361.8c43.5-44.2,104.1-71.6,171-71.6c67,0,127.5,27.4,171,71.6l38.1-38.1c18.5-18.5,18.5-48.5,0-67
			L268.7,81c-18.5-18.5-48.5-18.5-67,0L26,256.6c-18.5,18.5-18.5,48.5,0,67L64.1,361.8z"/>
		<path class="st48" d="M235.2,379.6c-42.2,0-80.4,17.4-107.8,45.4l74.2,74.2c18.5,18.5,48.5,18.5,67,0l74.2-74.2
			C315.6,397,277.4,379.6,235.2,379.6z"/>
	</g>
	<g>
		<path class="st49" d="M64.1,361.4c43.5-44.2,104.1-71.6,171-71.6c67,0,127.5,27.4,171,71.6l38.1-38.1c18.5-18.5,18.5-48.5,0-67
			L268.7,80.6c-18.5-18.5-48.5-18.5-67,0L26,256.3c-18.5,18.5-18.5,48.5,0,67L64.1,361.4z"/>
		<path class="st49" d="M235.2,379.3c-42.2,0-80.4,17.4-107.8,45.4l74.2,74.2c18.5,18.5,48.5,18.5,67,0l74.2-74.2
			C315.6,396.7,277.4,379.3,235.2,379.3z"/>
	</g>
	<g>
		<path class="st50" d="M64.1,361.1c43.5-44.2,104.1-71.6,171-71.6c67,0,127.5,27.4,171,71.6l38.1-38.1c18.5-18.5,18.5-48.5,0-67
			L268.7,80.3c-18.5-18.5-48.5-18.5-67,0L26,255.9c-18.5,18.5-18.5,48.5,0,67L64.1,361.1z"/>
		<path class="st50" d="M235.2,378.9c-42.2,0-80.4,17.4-107.8,45.4l74.2,74.2c18.5,18.5,48.5,18.5,67,0l74.2-74.2
			C315.6,396.3,277.4,378.9,235.2,378.9z"/>
	</g>
	<g>
		<path class="st51" d="M64.1,360.7c43.5-44.2,104.1-71.6,171-71.6c67,0,127.5,27.4,171,71.6l38.1-38.1c18.5-18.5,18.5-48.5,0-67
			L268.7,79.9c-18.5-18.5-48.5-18.5-67,0L26,255.6c-18.5,18.5-18.5,48.5,0,67L64.1,360.7z"/>
		<path class="st51" d="M235.2,378.6c-42.2,0-80.4,17.4-107.8,45.4l74.2,74.2c18.5,18.5,48.5,18.5,67,0l74.2-74.2
			C315.6,396,277.4,378.6,235.2,378.6z"/>
	</g>
	<g>
		<path class="st52" d="M64.1,360.4c43.5-44.2,104.1-71.6,171-71.6c67,0,127.5,27.4,171,71.6l38.1-38.1c18.5-18.5,18.5-48.5,0-67
			L268.7,79.6c-18.5-18.5-48.5-18.5-67,0L26,255.2c-18.5,18.5-18.5,48.5,0,67L64.1,360.4z"/>
		<path class="st52" d="M235.2,378.2c-42.2,0-80.4,17.4-107.8,45.4l74.2,74.2c18.5,18.5,48.5,18.5,67,0l74.2-74.2
			C315.6,395.6,277.4,378.2,235.2,378.2z"/>
	</g>
	<g>
		<path class="st53" d="M64.1,360c43.5-44.2,104.1-71.6,171-71.6c67,0,127.5,27.4,171,71.6l38.1-38.1c18.5-18.5,18.5-48.5,0-67
			L268.7,79.2c-18.5-18.5-48.5-18.5-67,0L26,254.9c-18.5,18.5-18.5,48.5,0,67L64.1,360z"/>
		<path class="st53" d="M235.2,377.9c-42.2,0-80.4,17.4-107.8,45.4l74.2,74.2c18.5,18.5,48.5,18.5,67,0l74.2-74.2
			C315.6,395.3,277.4,377.9,235.2,377.9z"/>
	</g>
	<g>
		<path class="st54" d="M64.1,359.7c43.5-44.2,104.1-71.6,171-71.6c67,0,127.5,27.4,171,71.6l38.1-38.1c18.5-18.5,18.5-48.5,0-67
			L268.7,78.9c-18.5-18.5-48.5-18.5-67,0L26,254.5C7.5,273,7.5,303,26,321.5L64.1,359.7z"/>
		<path class="st54" d="M235.2,377.5c-42.2,0-80.4,17.4-107.8,45.4l74.2,74.2c18.5,18.5,48.5,18.5,67,0l74.2-74.2
			C315.6,394.9,277.4,377.5,235.2,377.5z"/>
	</g>
	<g>
		<path class="st55" d="M64.1,359.3c43.5-44.2,104.1-71.6,171-71.6c67,0,127.5,27.4,171,71.6l38.1-38.1c18.5-18.5,18.5-48.5,0-67
			L268.7,78.5c-18.5-18.5-48.5-18.5-67,0L26,254.2c-18.5,18.5-18.5,48.5,0,67L64.1,359.3z"/>
		<path class="st55" d="M235.2,377.2c-42.2,0-80.4,17.4-107.8,45.4l74.2,74.2c18.5,18.5,48.5,18.5,67,0l74.2-74.2
			C315.6,394.6,277.4,377.2,235.2,377.2z"/>
	</g>
	<g>
		<path class="st56" d="M64.1,359c43.5-44.2,104.1-71.6,171-71.6c67,0,127.5,27.4,171,71.6l38.1-38.1c18.5-18.5,18.5-48.5,0-67
			L268.7,78.2c-18.5-18.5-48.5-18.5-67,0L26,253.8c-18.5,18.5-18.5,48.5,0,67L64.1,359z"/>
		<path class="st56" d="M235.2,376.8c-42.2,0-80.4,17.4-107.8,45.4l74.2,74.2c18.5,18.5,48.5,18.5,67,0l74.2-74.2
			C315.6,394.2,277.4,376.8,235.2,376.8z"/>
	</g>
	<g>
		<path class="st57" d="M64.1,358.6c43.5-44.2,104.1-71.6,171-71.6c67,0,127.5,27.4,171,71.6l38.1-38.1c18.5-18.5,18.5-48.5,0-67
			L268.7,77.9c-18.5-18.5-48.5-18.5-67,0L26,253.5C7.5,272,7.5,302,26,320.5L64.1,358.6z"/>
		<path class="st57" d="M235.2,376.5c-42.2,0-80.4,17.4-107.8,45.4l74.2,74.2c18.5,18.5,48.5,18.5,67,0l74.2-74.2
			C315.6,393.9,277.4,376.5,235.2,376.5z"/>
	</g>
	<g>
		<path class="st58" d="M64.1,358.3c43.5-44.2,104.1-71.6,171-71.6c67,0,127.5,27.4,171,71.6l38.1-38.1c18.5-18.5,18.5-48.5,0-67
			L268.7,77.5c-18.5-18.5-48.5-18.5-67,0L26,253.1c-18.5,18.5-18.5,48.5,0,67L64.1,358.3z"/>
		<path class="st58" d="M235.2,376.1c-42.2,0-80.4,17.4-107.8,45.4l74.2,74.2c18.5,18.5,48.5,18.5,67,0l74.2-74.2
			C315.6,393.5,277.4,376.1,235.2,376.1z"/>
	</g>
	<g>
		<path class="st59" d="M64.1,357.9c43.5-44.2,104.1-71.6,171-71.6c67,0,127.5,27.4,171,71.6l38.1-38.1c18.5-18.5,18.5-48.5,0-67
			L268.7,77.2c-18.5-18.5-48.5-18.5-67,0L26,252.8c-18.5,18.5-18.5,48.5,0,67L64.1,357.9z"/>
		<path class="st59" d="M235.2,375.8c-42.2,0-80.4,17.4-107.8,45.4l74.2,74.2c18.5,18.5,48.5,18.5,67,0l74.2-74.2
			C315.6,393.2,277.4,375.8,235.2,375.8z"/>
	</g>
	<g>
		<path class="st60" d="M64.1,357.6c43.5-44.2,104.1-71.6,171-71.6c67,0,127.5,27.4,171,71.6l38.1-38.1c18.5-18.5,18.5-48.5,0-67
			L268.7,76.8c-18.5-18.5-48.5-18.5-67,0L26,252.4c-18.5,18.5-18.5,48.5,0,67L64.1,357.6z"/>
		<path class="st60" d="M235.2,375.4c-42.2,0-80.4,17.4-107.8,45.4l74.2,74.2c18.5,18.5,48.5,18.5,67,0l74.2-74.2
			C315.6,392.8,277.4,375.4,235.2,375.4z"/>
	</g>
	<g>
		<path class="st61" d="M64.1,357.3c43.5-44.2,104.1-71.6,171-71.6c67,0,127.5,27.4,171,71.6l38.1-38.1c18.5-18.5,18.5-48.5,0-67
			L268.7,76.5c-18.5-18.5-48.5-18.5-67,0L26,252.1c-18.5,18.5-18.5,48.5,0,67L64.1,357.3z"/>
		<path class="st61" d="M235.2,375.1c-42.2,0-80.4,17.4-107.8,45.4l74.2,74.2c18.5,18.5,48.5,18.5,67,0l74.2-74.2
			C315.6,392.5,277.4,375.1,235.2,375.1z"/>
	</g>
	<g>
		<path class="st62" d="M64.1,356.9c43.5-44.2,104.1-71.6,171-71.6c67,0,127.5,27.4,171,71.6l38.1-38.1c18.5-18.5,18.5-48.5,0-67
			L268.7,76.1c-18.5-18.5-48.5-18.5-67,0L26,251.7c-18.5,18.5-18.5,48.5,0,67L64.1,356.9z"/>
		<path class="st62" d="M235.2,374.7c-42.2,0-80.4,17.4-107.8,45.4l74.2,74.2c18.5,18.5,48.5,18.5,67,0l74.2-74.2
			C315.6,392.2,277.4,374.7,235.2,374.7z"/>
	</g>
	<g>
		<path class="st63" d="M64.1,356.6c43.5-44.2,104.1-71.6,171-71.6c67,0,127.5,27.4,171,71.6l38.1-38.1c18.5-18.5,18.5-48.5,0-67
			L268.7,75.8c-18.5-18.5-48.5-18.5-67,0L26,251.4c-18.5,18.5-18.5,48.5,0,67L64.1,356.6z"/>
		<path class="st63" d="M235.2,374.4c-42.2,0-80.4,17.4-107.8,45.4l74.2,74.2c18.5,18.5,48.5,18.5,67,0l74.2-74.2
			C315.6,391.8,277.4,374.4,235.2,374.4z"/>
	</g>
	<g>
		<path class="st64" d="M64.1,356.2c43.5-44.2,104.1-71.6,171-71.6c67,0,127.5,27.4,171,71.6l38.1-38.1c18.5-18.5,18.5-48.5,0-67
			L268.7,75.4c-18.5-18.5-48.5-18.5-67,0L26,251c-18.5,18.5-18.5,48.5,0,67L64.1,356.2z"/>
		<path class="st64" d="M235.2,374c-42.2,0-80.4,17.4-107.8,45.4l74.2,74.2c18.5,18.5,48.5,18.5,67,0l74.2-74.2
			C315.6,391.5,277.4,374,235.2,374z"/>
	</g>
	<g>
		<path class="st65" d="M64.1,355.9c43.6-44.3,104.1-71.7,171.1-71.7s127.5,27.4,171,71.6l38.1-38.1c18.5-18.5,18.5-48.5,0-67
			L268.7,75.1c-18.5-18.5-48.5-18.5-67,0L26,250.7c-18.5,18.5-18.5,48.5,0,67L64.1,355.9z"/>
		<path class="st65" d="M235.2,373.7c-42.2,0-80.4,17.4-107.8,45.4l74.2,74.2c18.5,18.5,48.5,18.5,67,0l74.2-74.2
			C315.6,391.1,277.4,373.7,235.2,373.7z"/>
	</g>
	<g>
		<path class="st66" d="M64.1,355.5c43.5-44.2,104.1-71.6,171-71.6c67,0,127.5,27.4,171,71.6l38.1-38.1c18.5-18.5,18.5-48.5,0-67
			L268.7,74.7c-18.5-18.5-48.5-18.5-67,0L26,250.4c-18.5,18.5-18.5,48.5,0,67L64.1,355.5z"/>
		<path class="st66" d="M235.2,373.4c-42.2,0-80.4,17.4-107.8,45.4l74.2,74.2c18.5,18.5,48.5,18.5,67,0l74.2-74.2
			C315.6,390.8,277.4,373.4,235.2,373.4z"/>
	</g>
	<g>
		<path class="st67" d="M64.1,355.2c43.5-44.2,104.1-71.6,171-71.6c67,0,127.5,27.4,171,71.6l38.1-38.1c18.5-18.5,18.5-48.5,0-67
			L268.7,74.4c-18.5-18.5-48.5-18.5-67,0L26,250c-18.5,18.5-18.5,48.5,0,67L64.1,355.2z"/>
		<path class="st67" d="M235.2,373c-42.2,0-80.4,17.4-107.8,45.4l74.2,74.2c18.5,18.5,48.5,18.5,67,0l74.2-74.2
			C315.6,390.4,277.4,373,235.2,373z"/>
	</g>
	<g>
		<path class="st68" d="M64.1,354.8c43.6-44.2,104.1-71.6,171.1-71.6s127.5,27.4,171,71.6l38.1-38.1c18.5-18.5,18.5-48.5,0-67
			L268.7,74c-18.5-18.5-48.5-18.5-67,0L26,249.7c-18.5,18.5-18.5,48.5,0,67L64.1,354.8z"/>
		<path class="st68" d="M235.2,372.7c-42.2,0-80.4,17.4-107.8,45.4l74.2,74.2c18.5,18.5,48.5,18.5,67,0l74.2-74.2
			C315.6,390.1,277.4,372.7,235.2,372.7z"/>
	</g>
	<g>
		<path class="st69" d="M64.1,354.5c43.5-44.2,104.1-71.6,171-71.6c67,0,127.5,27.4,171,71.6l38.1-38.1c18.5-18.5,18.5-48.5,0-67
			L268.7,73.7c-18.5-18.5-48.5-18.5-67,0L26,249.3c-18.5,18.5-18.5,48.5,0,67L64.1,354.5z"/>
		<path class="st69" d="M235.2,372.3c-42.2,0-80.4,17.4-107.8,45.4l74.2,74.2c18.5,18.5,48.5,18.5,67,0l74.2-74.2
			C315.6,389.7,277.4,372.3,235.2,372.3z"/>
	</g>
	<g>
		<path class="st70" d="M64.1,354.1c43.5-44.2,104.1-71.6,171-71.6c67,0,127.5,27.4,171,71.6l38.1-38.1c18.5-18.5,18.5-48.5,0-67
			L268.7,73.3c-18.5-18.5-48.5-18.5-67,0L26,249c-18.5,18.5-18.5,48.5,0,67L64.1,354.1z"/>
		<path class="st70" d="M235.2,372c-42.2,0-80.4,17.4-107.8,45.4l74.2,74.2c18.5,18.5,48.5,18.5,67,0l74.2-74.2
			C315.6,389.4,277.4,372,235.2,372z"/>
	</g>
	<g>
		<path class="st71" d="M64.1,353.8c43.5-44.2,104.1-71.6,171-71.6c67,0,127.5,27.4,171,71.6l38.1-38.1c18.5-18.5,18.5-48.5,0-67
			L268.7,73c-18.5-18.5-48.5-18.5-67,0L26,248.6c-18.5,18.5-18.5,48.5,0,67L64.1,353.8z"/>
		<path class="st71" d="M235.2,371.6c-42.2,0-80.4,17.4-107.8,45.4l74.2,74.2c18.5,18.5,48.5,18.5,67,0l74.2-74.2
			C315.6,389,277.4,371.6,235.2,371.6z"/>
	</g>
	<g>
		<path class="st72" d="M64.1,353.4c43.5-44.2,104.1-71.6,171-71.6c67,0,127.5,27.4,171,71.6l38.1-38.1c18.5-18.5,18.5-48.5,0-67
			L268.7,72.6c-18.5-18.5-48.5-18.5-67,0L26,248.3c-18.5,18.5-18.5,48.5,0,67L64.1,353.4z"/>
		<path class="st72" d="M235.2,371.3c-42.2,0-80.4,17.4-107.8,45.4l74.2,74.2c18.5,18.5,48.5,18.5,67,0l74.2-74.2
			C315.6,388.7,277.4,371.3,235.2,371.3z"/>
	</g>
	<g>
		<path class="st73" d="M64.1,353.1c43.5-44.2,104.1-71.6,171-71.6c67,0,127.5,27.4,171,71.6l38.1-38.1c18.5-18.5,18.5-48.5,0-67
			L268.7,72.3c-18.5-18.5-48.5-18.5-67,0L26,247.9c-18.5,18.5-18.5,48.5,0,67L64.1,353.1z"/>
		<path class="st73" d="M235.2,370.9c-42.2,0-80.4,17.4-107.8,45.4l74.2,74.2c18.5,18.5,48.5,18.5,67,0l74.2-74.2
			C315.6,388.3,277.4,370.9,235.2,370.9z"/>
	</g>
	<g>
		<path class="st74" d="M64.1,352.7c43.5-44.2,104.1-71.6,171-71.6c67,0,127.5,27.4,171,71.6l38.1-38.1c18.5-18.5,18.5-48.5,0-67
			L268.7,71.9c-18.5-18.5-48.5-18.5-67,0L26,247.6c-18.5,18.5-18.5,48.5,0,67L64.1,352.7z"/>
		<path class="st74" d="M235.2,370.6c-42.2,0-80.4,17.4-107.8,45.4l74.2,74.2c18.5,18.5,48.5,18.5,67,0l74.2-74.2
			C315.6,388,277.4,370.6,235.2,370.6z"/>
	</g>
	<g>
		<path class="st75" d="M64.1,352.4c43.5-44.2,104.1-71.6,171-71.6c67,0,127.5,27.4,171,71.6l38.1-38.1c18.5-18.5,18.5-48.5,0-67
			L268.7,71.6c-18.5-18.5-48.5-18.5-67,0L26,247.2c-18.5,18.5-18.5,48.5,0,67L64.1,352.4z"/>
		<path class="st75" d="M235.2,370.2c-42.2,0-80.4,17.4-107.8,45.4l74.2,74.2c18.5,18.5,48.5,18.5,67,0l74.2-74.2
			C315.6,387.6,277.4,370.2,235.2,370.2z"/>
	</g>
	<g>
		<path class="st76" d="M64.1,352c43.5-44.2,104.1-71.6,171-71.6c67,0,127.5,27.4,171,71.6l38.1-38.1c18.5-18.5,18.5-48.5,0-67
			L268.7,71.2c-18.5-18.5-48.5-18.5-67,0L26,246.9c-18.5,18.5-18.5,48.5,0,67L64.1,352z"/>
		<path class="st76" d="M235.2,369.9c-42.2,0-80.4,17.4-107.8,45.4l74.2,74.2c18.5,18.5,48.5,18.5,67,0l74.2-74.2
			C315.6,387.3,277.4,369.9,235.2,369.9z"/>
	</g>
	<g>
		<path class="st77" d="M64.1,351.7c43.5-44.2,104.1-71.6,171-71.6c67,0,127.5,27.4,171,71.6l38.1-38.1c18.5-18.5,18.5-48.5,0-67
			L268.7,70.9c-18.5-18.5-48.5-18.5-67,0L26,246.5C7.5,265,7.5,295,26,313.5L64.1,351.7z"/>
		<path class="st77" d="M235.2,369.5c-42.2,0-80.4,17.4-107.8,45.4l74.2,74.2c18.5,18.5,48.5,18.5,67,0l74.2-74.2
			C315.6,386.9,277.4,369.5,235.2,369.5z"/>
	</g>
	<g>
		<path class="st78" d="M64.1,351.3c43.5-44.2,104.1-71.6,171-71.6c67,0,127.5,27.4,171,71.6l38.1-38.1c18.5-18.5,18.5-48.5,0-67
			L268.7,70.6c-18.5-18.5-48.5-18.5-67,0L26,246.2c-18.5,18.5-18.5,48.5,0,67L64.1,351.3z"/>
		<path class="st78" d="M235.2,369.2c-42.2,0-80.4,17.4-107.8,45.4l74.2,74.2c18.5,18.5,48.5,18.5,67,0l74.2-74.2
			C315.6,386.6,277.4,369.2,235.2,369.2z"/>
	</g>
	<g>
		<path class="st79" d="M64.1,351c43.5-44.2,104.1-71.6,171-71.6c67,0,127.5,27.4,171,71.6l38.1-38.1c18.5-18.5,18.5-48.5,0-67
			L268.7,70.2c-18.5-18.5-48.5-18.5-67,0L26,245.8c-18.5,18.5-18.5,48.5,0,67L64.1,351z"/>
		<path class="st79" d="M235.2,368.8c-42.2,0-80.4,17.4-107.8,45.4l74.2,74.2c18.5,18.5,48.5,18.5,67,0l74.2-74.2
			C315.6,386.2,277.4,368.8,235.2,368.8z"/>
	</g>
	<g>
		<path class="st80" d="M64.1,350.7c43.5-44.2,104.1-71.6,171-71.6c67,0,127.5,27.4,171,71.6l38.1-38.1c18.5-18.5,18.5-48.5,0-67
			L268.7,69.9c-18.5-18.5-48.5-18.5-67,0L26,245.5C7.5,264,7.5,294,26,312.5L64.1,350.7z"/>
		<path class="st80" d="M235.2,368.5c-42.2,0-80.4,17.4-107.8,45.4l74.2,74.2c18.5,18.5,48.5,18.5,67,0l74.2-74.2
			C315.6,385.9,277.4,368.5,235.2,368.5z"/>
	</g>
	<g>
		<path class="st81" d="M64.1,350.3c43.5-44.2,104.1-71.6,171-71.6c67,0,127.5,27.4,171,71.6l38.1-38.1c18.5-18.5,18.5-48.5,0-67
			L268.7,69.5c-18.5-18.5-48.5-18.5-67,0L26,245.1c-18.5,18.5-18.5,48.5,0,67L64.1,350.3z"/>
		<path class="st81" d="M235.2,368.1c-42.2,0-80.4,17.4-107.8,45.4l74.2,74.2c18.5,18.5,48.5,18.5,67,0l74.2-74.2
			C315.6,385.6,277.4,368.1,235.2,368.1z"/>
	</g>
	<g>
		<path class="st82" d="M64.1,350c43.5-44.2,104.1-71.6,171-71.6c67,0,127.5,27.4,171,71.6l38.1-38.1c18.5-18.5,18.5-48.5,0-67
			L268.7,69.2c-18.5-18.5-48.5-18.5-67,0L26,244.8c-18.5,18.5-18.5,48.5,0,67L64.1,350z"/>
		<path class="st82" d="M235.2,367.8c-42.2,0-80.4,17.4-107.8,45.4l74.2,74.2c18.5,18.5,48.5,18.5,67,0l74.2-74.2
			C315.6,385.2,277.4,367.8,235.2,367.8z"/>
	</g>
	<g>
		<path class="st83" d="M64.1,349.6c43.5-44.2,104.1-71.6,171-71.6c67,0,127.5,27.4,171,71.6l38.1-38.1c18.5-18.5,18.5-48.5,0-67
			L268.7,68.8c-18.5-18.5-48.5-18.5-67,0L26,244.4c-18.5,18.5-18.5,48.5,0,67L64.1,349.6z"/>
		<path class="st83" d="M235.2,367.4c-42.2,0-80.4,17.4-107.8,45.4l74.2,74.2c18.5,18.5,48.5,18.5,67,0l74.2-74.2
			C315.6,384.9,277.4,367.4,235.2,367.4z"/>
	</g>
	<g>
		<path class="st84" d="M64.1,349.3c43.5-44.2,104.1-71.6,171-71.6c67,0,127.5,27.4,171,71.6l38.1-38.1c18.5-18.5,18.5-48.5,0-67
			L268.7,68.5c-18.5-18.5-48.5-18.5-67,0L26,244.1c-18.5,18.5-18.5,48.5,0,67L64.1,349.3z"/>
		<path class="st84" d="M235.2,367.1c-42.2,0-80.4,17.4-107.8,45.4l74.2,74.2c18.5,18.5,48.5,18.5,67,0l74.2-74.2
			C315.6,384.5,277.4,367.1,235.2,367.1z"/>
	</g>
	<g>
		<path class="st85" d="M64.1,348.9c43.5-44.2,104.1-71.6,171-71.6c67,0,127.5,27.4,171,71.6l38.1-38.1c18.5-18.5,18.5-48.5,0-67
			L268.7,68.1c-18.5-18.5-48.5-18.5-67,0L26,243.8c-18.5,18.5-18.5,48.5,0,67L64.1,348.9z"/>
		<path class="st85" d="M235.2,366.8c-42.2,0-80.4,17.4-107.8,45.4l74.2,74.2c18.5,18.5,48.5,18.5,67,0l74.2-74.2
			C315.6,384.2,277.4,366.8,235.2,366.8z"/>
	</g>
	<g>
		<path class="st86" d="M64.1,348.6c43.5-44.2,104.1-71.6,171-71.6c67,0,127.5,27.4,171,71.6l38.1-38.1c18.5-18.5,18.5-48.5,0-67
			L268.7,67.8c-18.5-18.5-48.5-18.5-67,0L26,243.4c-18.5,18.5-18.5,48.5,0,67L64.1,348.6z"/>
		<path class="st86" d="M235.2,366.4c-42.2,0-80.4,17.4-107.8,45.4l74.2,74.2c18.5,18.5,48.5,18.5,67,0l74.2-74.2
			C315.6,383.8,277.4,366.4,235.2,366.4z"/>
	</g>
	<g>
		<path class="st87" d="M64.1,348.2c43.5-44.2,104.1-71.6,171-71.6c67,0,127.5,27.4,171,71.6l38.1-38.1c18.5-18.5,18.5-48.5,0-67
			L268.7,67.4c-18.5-18.5-48.5-18.5-67,0L26,243.1c-18.5,18.5-18.5,48.5,0,67L64.1,348.2z"/>
		<path class="st87" d="M235.2,366.1c-42.2,0-80.4,17.4-107.8,45.4l74.2,74.2c18.5,18.5,48.5,18.5,67,0l74.2-74.2
			C315.6,383.5,277.4,366.1,235.2,366.1z"/>
	</g>
	<g>
		<path class="st88" d="M64.1,347.9c43.6-44.2,104.1-71.7,171.1-71.7s127.5,27.4,171,71.6l38.1-38.1c18.5-18.5,18.5-48.5,0-67
			L268.7,67.1c-18.5-18.5-48.5-18.5-67,0L26,242.7c-18.5,18.5-18.5,48.5,0,67L64.1,347.9z"/>
		<path class="st88" d="M235.2,365.7c-42.2,0-80.4,17.4-107.8,45.4l74.2,74.2c18.5,18.5,48.5,18.5,67,0l74.2-74.2
			C315.6,383.1,277.4,365.7,235.2,365.7z"/>
	</g>
	<g>
		<path class="st89" d="M64.1,347.5c43.5-44.2,104.1-71.6,171-71.6c67,0,127.5,27.4,171,71.6l38.1-38.1c18.5-18.5,18.5-48.5,0-67
			L268.7,66.7c-18.5-18.5-48.5-18.5-67,0L26,242.4c-18.5,18.5-18.5,48.5,0,67L64.1,347.5z"/>
		<path class="st89" d="M235.2,365.4c-42.2,0-80.4,17.4-107.8,45.4l74.2,74.2c18.5,18.5,48.5,18.5,67,0l74.2-74.2
			C315.6,382.8,277.4,365.4,235.2,365.4z"/>
	</g>
	<g>
		<path class="st90" d="M64.1,347.2c43.5-44.2,104.1-71.6,171-71.6c67,0,127.5,27.4,171,71.6l38.1-38.1c18.5-18.5,18.5-48.5,0-67
			L268.7,66.4c-18.5-18.5-48.5-18.5-67,0L26,242c-18.5,18.5-18.5,48.5,0,67L64.1,347.2z"/>
		<path class="st90" d="M235.2,365c-42.2,0-80.4,17.4-107.8,45.4l74.2,74.2c18.5,18.5,48.5,18.5,67,0l74.2-74.2
			C315.6,382.4,277.4,365,235.2,365z"/>
	</g>
	<g>
		<path class="st91" d="M64.1,346.8c43.6-44.2,104.1-71.6,171.1-71.6s127.5,27.4,171,71.6l38.1-38.1c18.5-18.5,18.5-48.5,0-67
			L268.7,66c-18.5-18.5-48.5-18.5-67,0L26,241.7c-18.5,18.5-18.5,48.5,0,67L64.1,346.8z"/>
		<path class="st91" d="M235.2,364.7c-42.2,0-80.4,17.4-107.8,45.4l74.2,74.2c18.5,18.5,48.5,18.5,67,0l74.2-74.2
			C315.6,382.1,277.4,364.7,235.2,364.7z"/>
	</g>
	<g>
		<path class="st92" d="M64.1,346.5c43.5-44.2,104.1-71.6,171-71.6c67,0,127.5,27.4,171,71.6l38.1-38.1c18.5-18.5,18.5-48.5,0-67
			L268.7,65.7c-18.5-18.5-48.5-18.5-67,0L26,241.3c-18.5,18.5-18.5,48.5,0,67L64.1,346.5z"/>
		<path class="st92" d="M235.2,364.3c-42.2,0-80.4,17.4-107.8,45.4l74.2,74.2c18.5,18.5,48.5,18.5,67,0l74.2-74.2
			C315.6,381.7,277.4,364.3,235.2,364.3z"/>
	</g>
	<g>
		<path class="st93" d="M64.1,346.1c43.5-44.2,104.1-71.6,171-71.6c67,0,127.5,27.4,171,71.6l38.1-38.1c18.5-18.5,18.5-48.5,0-67
			L268.7,65.3c-18.5-18.5-48.5-18.5-67,0L26,241c-18.5,18.5-18.5,48.5,0,67L64.1,346.1z"/>
		<path class="st93" d="M235.2,364c-42.2,0-80.4,17.4-107.8,45.4l74.2,74.2c18.5,18.5,48.5,18.5,67,0l74.2-74.2
			C315.6,381.4,277.4,364,235.2,364z"/>
	</g>
	<g>
		<path class="st94" d="M64.1,345.8c43.5-44.2,104.1-71.6,171-71.6c67,0,127.5,27.4,171,71.6l38.1-38.1c18.5-18.5,18.5-48.5,0-67
			L268.7,65c-18.5-18.5-48.5-18.5-67,0L26,240.6c-18.5,18.5-18.5,48.5,0,67L64.1,345.8z"/>
		<path class="st94" d="M235.2,363.6c-42.2,0-80.4,17.4-107.8,45.4l74.2,74.2c18.5,18.5,48.5,18.5,67,0l74.2-74.2
			C315.6,381,277.4,363.6,235.2,363.6z"/>
	</g>
	<g>
		<path class="st95" d="M64.1,345.4c43.5-44.2,104.1-71.6,171-71.6c67,0,127.5,27.4,171,71.6l38.1-38.1c18.5-18.5,18.5-48.5,0-67
			L268.7,64.6c-18.5-18.5-48.5-18.5-67,0L26,240.3c-18.5,18.5-18.5,48.5,0,67L64.1,345.4z"/>
		<path class="st95" d="M235.2,363.3c-42.2,0-80.4,17.4-107.8,45.4l74.2,74.2c18.5,18.5,48.5,18.5,67,0l74.2-74.2
			C315.6,380.7,277.4,363.3,235.2,363.3z"/>
	</g>
	<g>
		<path class="st96" d="M64.1,345.1c43.5-44.2,104.1-71.6,171-71.6c67,0,127.5,27.4,171,71.6l38.1-38.1c18.5-18.5,18.5-48.5,0-67
			L268.7,64.3c-18.5-18.5-48.5-18.5-67,0L26,239.9c-18.5,18.5-18.5,48.5,0,67L64.1,345.1z"/>
		<path class="st96" d="M235.2,362.9c-42.2,0-80.4,17.4-107.8,45.4l74.2,74.2c18.5,18.5,48.5,18.5,67,0l74.2-74.2
			C315.6,380.3,277.4,362.9,235.2,362.9z"/>
	</g>
	<g>
		<path class="st97" d="M64.1,344.7c43.5-44.2,104.1-71.6,171-71.6c67,0,127.5,27.4,171,71.6l38.1-38.1c18.5-18.5,18.5-48.5,0-67
			L268.7,64c-18.5-18.5-48.5-18.5-67,0L26,239.6c-18.5,18.5-18.5,48.5,0,67L64.1,344.7z"/>
		<path class="st97" d="M235.2,362.6c-42.2,0-80.4,17.4-107.8,45.4l74.2,74.2c18.5,18.5,48.5,18.5,67,0l74.2-74.2
			C315.6,380,277.4,362.6,235.2,362.6z"/>
	</g>
	<g>
		<path class="st98" d="M64.1,344.4c43.5-44.2,104.1-71.6,171-71.6c67,0,127.5,27.4,171,71.6l38.1-38.1c18.5-18.5,18.5-48.5,0-67
			L268.7,63.6c-18.5-18.5-48.5-18.5-67,0L26,239.2c-18.5,18.5-18.5,48.5,0,67L64.1,344.4z"/>
		<path class="st98" d="M235.2,362.2c-42.2,0-80.4,17.4-107.8,45.4l74.2,74.2c18.5,18.5,48.5,18.5,67,0l74.2-74.2
			C315.6,379.6,277.4,362.2,235.2,362.2z"/>
	</g>
	<g>
		<path class="st99" d="M64.1,344.1c43.5-44.2,104.1-71.6,171-71.6c67,0,127.5,27.4,171,71.6l38.1-38.1c18.5-18.5,18.5-48.5,0-67
			L268.7,63.3c-18.5-18.5-48.5-18.5-67,0L26,238.9c-18.5,18.5-18.5,48.5,0,67L64.1,344.1z"/>
		<path class="st99" d="M235.2,361.9c-42.2,0-80.4,17.4-107.8,45.4l74.2,74.2c18.5,18.5,48.5,18.5,67,0l74.2-74.2
			C315.6,379.3,277.4,361.9,235.2,361.9z"/>
	</g>
	<g>
		<path class="st100" d="M64.1,343.7c43.5-44.2,104.1-71.6,171-71.6c67,0,127.5,27.4,171,71.6l38.1-38.1c18.5-18.5,18.5-48.5,0-67
			L268.7,62.9c-18.5-18.5-48.5-18.5-67,0L26,238.5C7.5,257,7.5,287,26,305.5L64.1,343.7z"/>
		<path class="st100" d="M235.2,361.5c-42.2,0-80.4,17.4-107.8,45.4l74.2,74.2c18.5,18.5,48.5,18.5,67,0l74.2-74.2
			C315.6,379,277.4,361.5,235.2,361.5z"/>
	</g>
	<g>
		<path class="st101" d="M64.1,343.4c43.5-44.2,104.1-71.6,171-71.6c67,0,127.5,27.4,171,71.6l38.1-38.1c18.5-18.5,18.5-48.5,0-67
			L268.7,62.6c-18.5-18.5-48.5-18.5-67,0L26,238.2c-18.5,18.5-18.5,48.5,0,67L64.1,343.4z"/>
		<path class="st101" d="M235.2,361.2c-42.2,0-80.4,17.4-107.8,45.4l74.2,74.2c18.5,18.5,48.5,18.5,67,0l74.2-74.2
			C315.6,378.6,277.4,361.2,235.2,361.2z"/>
	</g>
	<g>
		<path class="st102" d="M64.1,343c43.5-44.2,104.1-71.6,171-71.6c67,0,127.5,27.4,171,71.6l38.1-38.1c18.5-18.5,18.5-48.5,0-67
			L268.7,62.2c-18.5-18.5-48.5-18.5-67,0L26,237.8c-18.5,18.5-18.5,48.5,0,67L64.1,343z"/>
		<path class="st102" d="M235.2,360.8c-42.2,0-80.4,17.4-107.8,45.4l74.2,74.2c18.5,18.5,48.5,18.5,67,0l74.2-74.2
			C315.6,378.3,277.4,360.8,235.2,360.8z"/>
	</g>
	<g>
		<path class="st103" d="M64.1,342.7c43.5-44.2,104.1-71.6,171-71.6c67,0,127.5,27.4,171,71.6l38.1-38.1c18.5-18.5,18.5-48.5,0-67
			L268.7,61.9c-18.5-18.5-48.5-18.5-67,0L26,237.5C7.5,256,7.5,286,26,304.5L64.1,342.7z"/>
		<path class="st103" d="M235.2,360.5c-42.2,0-80.4,17.4-107.8,45.4l74.2,74.2c18.5,18.5,48.5,18.5,67,0l74.2-74.2
			C315.6,377.9,277.4,360.5,235.2,360.5z"/>
	</g>
	<g>
		<path class="st104" d="M64.1,342.3c43.5-44.2,104.1-71.6,171-71.6c67,0,127.5,27.4,171,71.6l38.1-38.1c18.5-18.5,18.5-48.5,0-67
			L268.7,61.5c-18.5-18.5-48.5-18.5-67,0L26,237.2c-18.5,18.5-18.5,48.5,0,67L64.1,342.3z"/>
		<path class="st104" d="M235.2,360.2c-42.2,0-80.4,17.4-107.8,45.4l74.2,74.2c18.5,18.5,48.5,18.5,67,0l74.2-74.2
			C315.6,377.6,277.4,360.2,235.2,360.2z"/>
	</g>
	<g>
		<path class="st105" d="M64.1,342c43.5-44.2,104.1-71.6,171-71.6c67,0,127.5,27.4,171,71.6l38.1-38.1c18.5-18.5,18.5-48.5,0-67
			L268.7,61.2c-18.5-18.5-48.5-18.5-67,0L26,236.8c-18.5,18.5-18.5,48.5,0,67L64.1,342z"/>
		<path class="st105" d="M235.2,359.8c-42.2,0-80.4,17.4-107.8,45.4l74.2,74.2c18.5,18.5,48.5,18.5,67,0l74.2-74.2
			C315.6,377.2,277.4,359.8,235.2,359.8z"/>
	</g>
	<g>
		<path class="st106" d="M64.1,341.6c43.5-44.2,104.1-71.6,171-71.6c67,0,127.5,27.4,171,71.6l38.1-38.1c18.5-18.5,18.5-48.5,0-67
			L268.7,60.8c-18.5-18.5-48.5-18.5-67,0L26,236.5C7.5,255,7.5,285,26,303.5L64.1,341.6z"/>
		<path class="st106" d="M235.2,359.5c-42.2,0-80.4,17.4-107.8,45.4l74.2,74.2c18.5,18.5,48.5,18.5,67,0l74.2-74.2
			C315.6,376.9,277.4,359.5,235.2,359.5z"/>
	</g>
	<g>
		<path class="st107" d="M64.1,341.3c43.5-44.2,104.1-71.6,171-71.6c67,0,127.5,27.4,171,71.6l38.1-38.1c18.5-18.5,18.5-48.5,0-67
			L268.7,60.5c-18.5-18.5-48.5-18.5-67,0L26,236.1c-18.5,18.5-18.5,48.5,0,67L64.1,341.3z"/>
		<path class="st107" d="M235.2,359.1c-42.2,0-80.4,17.4-107.8,45.4l74.2,74.2c18.5,18.5,48.5,18.5,67,0l74.2-74.2
			C315.6,376.5,277.4,359.1,235.2,359.1z"/>
	</g>
	<g>
		<path class="st108" d="M64.1,340.9c43.5-44.2,104.1-71.6,171-71.6c67,0,127.5,27.4,171,71.6l38.1-38.1c18.5-18.5,18.5-48.5,0-67
			L268.7,60.1c-18.5-18.5-48.5-18.5-67,0L26,235.8c-18.5,18.5-18.5,48.5,0,67L64.1,340.9z"/>
		<path class="st108" d="M235.2,358.8c-42.2,0-80.4,17.4-107.8,45.4l74.2,74.2c18.5,18.5,48.5,18.5,67,0l74.2-74.2
			C315.6,376.2,277.4,358.8,235.2,358.8z"/>
	</g>
	<g>
		<path class="st109" d="M64.1,340.6c43.5-44.2,104.1-71.6,171-71.6c67,0,127.5,27.4,171,71.6l38.1-38.1c18.5-18.5,18.5-48.5,0-67
			L268.7,59.8c-18.5-18.5-48.5-18.5-67,0L26,235.4c-18.5,18.5-18.5,48.5,0,67L64.1,340.6z"/>
		<path class="st109" d="M235.2,358.4c-42.2,0-80.4,17.4-107.8,45.4l74.2,74.2c18.5,18.5,48.5,18.5,67,0l74.2-74.2
			C315.6,375.8,277.4,358.4,235.2,358.4z"/>
	</g>
	<g>
		<path class="st110" d="M64.1,340.2c43.5-44.2,104.1-71.6,171-71.6c67,0,127.5,27.4,171,71.6l38.1-38.1c18.5-18.5,18.5-48.5,0-67
			L268.7,59.4c-18.5-18.5-48.5-18.5-67,0L26,235.1c-18.5,18.5-18.5,48.5,0,67L64.1,340.2z"/>
		<path class="st110" d="M235.2,358.1c-42.2,0-80.4,17.4-107.8,45.4l74.2,74.2c18.5,18.5,48.5,18.5,67,0l74.2-74.2
			C315.6,375.5,277.4,358.1,235.2,358.1z"/>
	</g>
	<g>
		<path class="st111" d="M64.1,339.9c43.6-44.2,104.1-71.7,171.1-71.7s127.5,27.4,171,71.6l38.1-38.1c18.5-18.5,18.5-48.5,0-67
			L268.7,59.1c-18.5-18.5-48.5-18.5-67,0L26,234.7c-18.5,18.5-18.5,48.5,0,67L64.1,339.9z"/>
		<path class="st111" d="M235.2,357.7c-42.2,0-80.4,17.4-107.8,45.4l74.2,74.2c18.5,18.5,48.5,18.5,67,0l74.2-74.2
			C315.6,375.1,277.4,357.7,235.2,357.7z"/>
	</g>
	<g>
		<path class="st112" d="M64.1,339.5c43.5-44.2,104.1-71.6,171-71.6c67,0,127.5,27.4,171,71.6l38.1-38.1c18.5-18.5,18.5-48.5,0-67
			L268.7,58.7c-18.5-18.5-48.5-18.5-67,0L26,234.4c-18.5,18.5-18.5,48.5,0,67L64.1,339.5z"/>
		<path class="st112" d="M235.2,357.4c-42.2,0-80.4,17.4-107.8,45.4l74.2,74.2c18.5,18.5,48.5,18.5,67,0l74.2-74.2
			C315.6,374.8,277.4,357.4,235.2,357.4z"/>
	</g>
	<g>
		<path class="st113" d="M64.1,339.2c43.5-44.2,104.1-71.6,171-71.6c67,0,127.5,27.4,171,71.6l38.1-38.1c18.5-18.5,18.5-48.5,0-67
			L268.7,58.4c-18.5-18.5-48.5-18.5-67,0L26,234c-18.5,18.5-18.5,48.5,0,67L64.1,339.2z"/>
		<path class="st113" d="M235.2,357c-42.2,0-80.4,17.4-107.8,45.4l74.2,74.2c18.5,18.5,48.5,18.5,67,0l74.2-74.2
			C315.6,374.4,277.4,357,235.2,357z"/>
	</g>
	<g>
		<path class="st114" d="M64.1,338.8c43.6-44.2,104.1-71.6,171.1-71.6s127.5,27.4,171,71.6l38.1-38.1c18.5-18.5,18.5-48.5,0-67
			L268.7,58c-18.5-18.5-48.5-18.5-67,0L26,233.7c-18.5,18.5-18.5,48.5,0,67L64.1,338.8z"/>
		<path class="st114" d="M235.2,356.7c-42.2,0-80.4,17.4-107.8,45.4l74.2,74.2c18.5,18.5,48.5,18.5,67,0l74.2-74.2
			C315.6,374.1,277.4,356.7,235.2,356.7z"/>
	</g>
	<g>
		<path class="st115" d="M64.1,338.5c43.5-44.2,104.1-71.6,171-71.6c67,0,127.5,27.4,171,71.6l38.1-38.1c18.5-18.5,18.5-48.5,0-67
			L268.7,57.7c-18.5-18.5-48.5-18.5-67,0L26,233.3c-18.5,18.5-18.5,48.5,0,67L64.1,338.5z"/>
		<path class="st115" d="M235.2,356.3c-42.2,0-80.4,17.4-107.8,45.4l74.2,74.2c18.5,18.5,48.5,18.5,67,0l74.2-74.2
			C315.6,373.7,277.4,356.3,235.2,356.3z"/>
	</g>
	<g>
		<path class="st116" d="M64.1,338.1c43.5-44.2,104.1-71.6,171-71.6c67,0,127.5,27.4,171,71.6l38.1-38.1c18.5-18.5,18.5-48.5,0-67
			L268.7,57.4c-18.5-18.5-48.5-18.5-67,0L26,233c-18.5,18.5-18.5,48.5,0,67L64.1,338.1z"/>
		<path class="st116" d="M235.2,356c-42.2,0-80.4,17.4-107.8,45.4l74.2,74.2c18.5,18.5,48.5,18.5,67,0l74.2-74.2
			C315.6,373.4,277.4,356,235.2,356z"/>
	</g>
	<g>
		<path class="st117" d="M64.1,337.8c43.6-44.2,104.1-71.6,171.1-71.6s127.5,27.4,171,71.6l38.1-38.1c18.5-18.5,18.5-48.5,0-67
			L268.7,57c-18.5-18.5-48.5-18.5-67,0L26,232.6c-18.5,18.5-18.5,48.5,0,67L64.1,337.8z"/>
		<path class="st117" d="M235.2,355.6c-42.2,0-80.4,17.4-107.8,45.4l74.2,74.2c18.5,18.5,48.5,18.5,67,0l74.2-74.2
			C315.6,373,277.4,355.6,235.2,355.6z"/>
	</g>
	<g>
		<path class="st118" d="M64.1,337.5c43.5-44.2,104.1-71.6,171-71.6c67,0,127.5,27.4,171,71.6l38.1-38.1c18.5-18.5,18.5-48.5,0-67
			L268.7,56.7c-18.5-18.5-48.5-18.5-67,0L26,232.3c-18.5,18.5-18.5,48.5,0,67L64.1,337.5z"/>
		<path class="st118" d="M235.2,355.3c-42.2,0-80.4,17.4-107.8,45.4l74.2,74.2c18.5,18.5,48.5,18.5,67,0l74.2-74.2
			C315.6,372.7,277.4,355.3,235.2,355.3z"/>
	</g>
	<g>
		<path class="st119" d="M64.1,337.1c43.5-44.2,104.1-71.6,171-71.6c67,0,127.5,27.4,171,71.6l38.1-38.1c18.5-18.5,18.5-48.5,0-67
			L268.7,56.3c-18.5-18.5-48.5-18.5-67,0L26,231.9c-18.5,18.5-18.5,48.5,0,67L64.1,337.1z"/>
		<path class="st119" d="M235.2,354.9c-42.2,0-80.4,17.4-107.8,45.4l74.2,74.2c18.5,18.5,48.5,18.5,67,0l74.2-74.2
			C315.6,372.4,277.4,354.9,235.2,354.9z"/>
	</g>
	<g>
		<path class="st120" d="M64.1,336.8c43.5-44.2,104.1-71.6,171-71.6c67,0,127.5,27.4,171,71.6l38.1-38.1c18.5-18.5,18.5-48.5,0-67
			L268.7,56c-18.5-18.5-48.5-18.5-67,0L26,231.6c-18.5,18.5-18.5,48.5,0,67L64.1,336.8z"/>
		<path class="st120" d="M235.2,354.6c-42.2,0-80.4,17.4-107.8,45.4l74.2,74.2c18.5,18.5,48.5,18.5,67,0l74.2-74.2
			C315.6,372,277.4,354.6,235.2,354.6z"/>
	</g>
	<g>
		<path class="st121" d="M64.1,336.4c43.5-44.2,104.1-71.6,171-71.6c67,0,127.5,27.4,171,71.6l38.1-38.1c18.5-18.5,18.5-48.5,0-67
			L268.7,55.6c-18.5-18.5-48.5-18.5-67,0L26,231.2c-18.5,18.5-18.5,48.5,0,67L64.1,336.4z"/>
		<path class="st121" d="M235.2,354.2c-42.2,0-80.4,17.4-107.8,45.4l74.2,74.2c18.5,18.5,48.5,18.5,67,0l74.2-74.2
			C315.6,371.7,277.4,354.2,235.2,354.2z"/>
	</g>
	<g>
		<path class="st122" d="M64.1,336.1c43.5-44.2,104.1-71.6,171-71.6c67,0,127.5,27.4,171,71.6l38.1-38.1c18.5-18.5,18.5-48.5,0-67
			L268.7,55.3c-18.5-18.5-48.5-18.5-67,0L26,230.9c-18.5,18.5-18.5,48.5,0,67L64.1,336.1z"/>
		<path class="st122" d="M235.2,353.9c-42.2,0-80.4,17.4-107.8,45.4l74.2,74.2c18.5,18.5,48.5,18.5,67,0l74.2-74.2
			C315.6,371.3,277.4,353.9,235.2,353.9z"/>
	</g>
	<g>
		<path class="st123" d="M64.1,335.7c43.5-44.2,104.1-71.6,171-71.6c67,0,127.5,27.4,171,71.6l38.1-38.1c18.5-18.5,18.5-48.5,0-67
			L268.7,54.9c-18.5-18.5-48.5-18.5-67,0L26,230.5C7.5,249,7.5,279,26,297.5L64.1,335.7z"/>
		<path class="st123" d="M235.2,353.6c-42.2,0-80.4,17.4-107.8,45.4l74.2,74.2c18.5,18.5,48.5,18.5,67,0l74.2-74.2
			C315.6,371,277.4,353.6,235.2,353.6z"/>
	</g>
	<g>
		<path class="st124" d="M64.1,335.4c43.5-44.2,104.1-71.6,171-71.6c67,0,127.5,27.4,171,71.6l38.1-38.1c18.5-18.5,18.5-48.5,0-67
			L268.7,54.6c-18.5-18.5-48.5-18.5-67,0L26,230.2c-18.5,18.5-18.5,48.5,0,67L64.1,335.4z"/>
		<path class="st124" d="M235.2,353.2c-42.2,0-80.4,17.4-107.8,45.4l74.2,74.2c18.5,18.5,48.5,18.5,67,0l74.2-74.2
			C315.6,370.6,277.4,353.2,235.2,353.2z"/>
	</g>
	<g>
		<path class="st125" d="M64.1,335c43.5-44.2,104.1-71.6,171-71.6c67,0,127.5,27.4,171,71.6l38.1-38.1c18.5-18.5,18.5-48.5,0-67
			L268.7,54.2c-18.5-18.5-48.5-18.5-67,0L26,229.9c-18.5,18.5-18.5,48.5,0,67L64.1,335z"/>
		<path class="st125" d="M235.2,352.9c-42.2,0-80.4,17.4-107.8,45.4l74.2,74.2c18.5,18.5,48.5,18.5,67,0l74.2-74.2
			C315.6,370.3,277.4,352.9,235.2,352.9z"/>
	</g>
	<g>
		<path class="st126" d="M64.1,334.7c43.5-44.2,104.1-71.6,171-71.6c67,0,127.5,27.4,171,71.6l38.1-38.1c18.5-18.5,18.5-48.5,0-67
			L268.7,53.9c-18.5-18.5-48.5-18.5-67,0L26,229.5C7.5,248,7.5,278,26,296.5L64.1,334.7z"/>
		<path class="st126" d="M235.2,352.5c-42.2,0-80.4,17.4-107.8,45.4l74.2,74.2c18.5,18.5,48.5,18.5,67,0l74.2-74.2
			C315.6,369.9,277.4,352.5,235.2,352.5z"/>
	</g>
	<g>
		<path class="st127" d="M64.1,334.3c43.5-44.2,104.1-71.6,171-71.6c67,0,127.5,27.4,171,71.6l38.1-38.1c18.5-18.5,18.5-48.5,0-67
			L268.7,53.5c-18.5-18.5-48.5-18.5-67,0L26,229.2c-18.5,18.5-18.5,48.5,0,67L64.1,334.3z"/>
		<path class="st127" d="M235.2,352.2c-42.2,0-80.4,17.4-107.8,45.4l74.2,74.2c18.5,18.5,48.5,18.5,67,0l74.2-74.2
			C315.6,369.6,277.4,352.2,235.2,352.2z"/>
	</g>
	<g>
		<path class="st128" d="M64.1,334c43.5-44.2,104.1-71.6,171-71.6c67,0,127.5,27.4,171,71.6l38.1-38.1c18.5-18.5,18.5-48.5,0-67
			L268.7,53.2c-18.5-18.5-48.5-18.5-67,0L26,228.8c-18.5,18.5-18.5,48.5,0,67L64.1,334z"/>
		<path class="st128" d="M235.2,351.8c-42.2,0-80.4,17.4-107.8,45.4l74.2,74.2c18.5,18.5,48.5,18.5,67,0l74.2-74.2
			C315.6,369.2,277.4,351.8,235.2,351.8z"/>
	</g>
	<g>
		<path class="st129" d="M64.1,333.6c43.5-44.2,104.1-71.6,171-71.6c67,0,127.5,27.4,171,71.6l38.1-38.1c18.5-18.5,18.5-48.5,0-67
			L268.7,52.8c-18.5-18.5-48.5-18.5-67,0L26,228.5C7.5,247,7.5,277,26,295.5L64.1,333.6z"/>
		<path class="st129" d="M235.2,351.5c-42.2,0-80.4,17.4-107.8,45.4l74.2,74.2c18.5,18.5,48.5,18.5,67,0l74.2-74.2
			C315.6,368.9,277.4,351.5,235.2,351.5z"/>
	</g>
	<g>
		<path class="st130" d="M64.1,333.3c43.5-44.2,104.1-71.6,171-71.6c67,0,127.5,27.4,171,71.6l38.1-38.1c18.5-18.5,18.5-48.5,0-67
			L268.7,52.5c-18.5-18.5-48.5-18.5-67,0L26,228.1c-18.5,18.5-18.5,48.5,0,67L64.1,333.3z"/>
		<path class="st130" d="M235.2,351.1c-42.2,0-80.4,17.4-107.8,45.4l74.2,74.2c18.5,18.5,48.5,18.5,67,0l74.2-74.2
			C315.6,368.5,277.4,351.1,235.2,351.1z"/>
	</g>
	<g>
		<path class="st131" d="M64.1,332.9c43.5-44.2,104.1-71.6,171-71.6c67,0,127.5,27.4,171,71.6l38.1-38.1c18.5-18.5,18.5-48.5,0-67
			L268.7,52.1c-18.5-18.5-48.5-18.5-67,0L26,227.8c-18.5,18.5-18.5,48.5,0,67L64.1,332.9z"/>
		<path class="st131" d="M235.2,350.8c-42.2,0-80.4,17.4-107.8,45.4l74.2,74.2c18.5,18.5,48.5,18.5,67,0l74.2-74.2
			C315.6,368.2,277.4,350.8,235.2,350.8z"/>
	</g>
	<g>
		<path class="st132" d="M64.1,332.6c43.5-44.2,104.1-71.6,171-71.6c67,0,127.5,27.4,171,71.6l38.1-38.1c18.5-18.5,18.5-48.5,0-67
			L268.7,51.8c-18.5-18.5-48.5-18.5-67,0L26,227.4c-18.5,18.5-18.5,48.5,0,67L64.1,332.6z"/>
		<path class="st132" d="M235.2,350.4c-42.2,0-80.4,17.4-107.8,45.4l74.2,74.2c18.5,18.5,48.5,18.5,67,0l74.2-74.2
			C315.6,367.8,277.4,350.4,235.2,350.4z"/>
	</g>
	<g>
		<path class="st133" d="M64.1,332.2c43.5-44.2,104.1-71.6,171-71.6c67,0,127.5,27.4,171,71.6l38.1-38.1c18.5-18.5,18.5-48.5,0-67
			L268.7,51.4c-18.5-18.5-48.5-18.5-67,0L26,227.1c-18.5,18.5-18.5,48.5,0,67L64.1,332.2z"/>
		<path class="st133" d="M235.2,350.1c-42.2,0-80.4,17.4-107.8,45.4l74.2,74.2c18.5,18.5,48.5,18.5,67,0l74.2-74.2
			C315.6,367.5,277.4,350.1,235.2,350.1z"/>
	</g>
	<g>
		<path class="st134" d="M64.1,331.9c43.5-44.2,104.1-71.6,171-71.6c67,0,127.5,27.4,171,71.6l38.1-38.1c18.5-18.5,18.5-48.5,0-67
			L268.7,51.1c-18.5-18.5-48.5-18.5-67,0L26,226.7c-18.5,18.5-18.5,48.5,0,67L64.1,331.9z"/>
		<path class="st134" d="M235.2,349.7c-42.2,0-80.4,17.4-107.8,45.4l74.2,74.2c18.5,18.5,48.5,18.5,67,0l74.2-74.2
			C315.6,367.1,277.4,349.7,235.2,349.7z"/>
	</g>
	<g>
		<path class="st135" d="M64.1,331.5c43.5-44.2,104.1-71.6,171-71.6c67,0,127.5,27.4,171,71.6l38.1-38.1c18.5-18.5,18.5-48.5,0-67
			L268.7,50.8c-18.5-18.5-48.5-18.5-67,0L26,226.4c-18.5,18.5-18.5,48.5,0,67L64.1,331.5z"/>
		<path class="st135" d="M235.2,349.4c-42.2,0-80.4,17.4-107.8,45.4l74.2,74.2c18.5,18.5,48.5,18.5,67,0l74.2-74.2
			C315.6,366.8,277.4,349.4,235.2,349.4z"/>
	</g>
	<g>
		<path class="st136" d="M64.1,331.2c43.5-44.2,104.1-71.6,171-71.6c67,0,127.5,27.4,171,71.6l38.1-38.1c18.5-18.5,18.5-48.5,0-67
			L268.7,50.4c-18.5-18.5-48.5-18.5-67,0L26,226c-18.5,18.5-18.5,48.5,0,67L64.1,331.2z"/>
		<path class="st136" d="M235.2,349c-42.2,0-80.4,17.4-107.8,45.4l74.2,74.2c18.5,18.5,48.5,18.5,67,0l74.2-74.2
			C315.6,366.4,277.4,349,235.2,349z"/>
	</g>
	<g>
		<path class="st137" d="M64.1,330.9c43.6-44.3,104.1-71.7,171.1-71.7s127.5,27.4,171,71.6l38.1-38.1c18.5-18.5,18.5-48.5,0-67
			L268.7,50.1c-18.5-18.5-48.5-18.5-67,0L26,225.7c-18.5,18.5-18.5,48.5,0,67L64.1,330.9z"/>
		<path class="st137" d="M235.2,348.7c-42.2,0-80.4,17.4-107.8,45.4l74.2,74.2c18.5,18.5,48.5,18.5,67,0l74.2-74.2
			C315.6,366.1,277.4,348.7,235.2,348.7z"/>
	</g>
	<g>
		<path class="st138" d="M64.1,330.5c43.5-44.2,104.1-71.6,171-71.6c67,0,127.5,27.4,171,71.6l38.1-38.1c18.5-18.5,18.5-48.5,0-67
			L268.7,49.7c-18.5-18.5-48.5-18.5-67,0L26,225.3c-18.5,18.5-18.5,48.5,0,67L64.1,330.5z"/>
		<path class="st138" d="M235.2,348.3c-42.2,0-80.4,17.4-107.8,45.4l74.2,74.2c18.5,18.5,48.5,18.5,67,0l74.2-74.2
			C315.6,365.8,277.4,348.3,235.2,348.3z"/>
	</g>
	<g>
		<path class="st139" d="M64.1,330.2c43.5-44.2,104.1-71.6,171-71.6c67,0,127.5,27.4,171,71.6l38.1-38.1c18.5-18.5,18.5-48.5,0-67
			L268.7,49.4c-18.5-18.5-48.5-18.5-67,0L26,225c-18.5,18.5-18.5,48.5,0,67L64.1,330.2z"/>
		<path class="st139" d="M235.2,348c-42.2,0-80.4,17.4-107.8,45.4l74.2,74.2c18.5,18.5,48.5,18.5,67,0l74.2-74.2
			C315.6,365.4,277.4,348,235.2,348z"/>
	</g>
	<g>
		<path class="st140" d="M64.1,329.8c43.6-44.2,104.1-71.6,171.1-71.6s127.5,27.4,171,71.6l38.1-38.1c18.5-18.5,18.5-48.5,0-67
			L268.7,49c-18.5-18.5-48.5-18.5-67,0L26,224.6c-18.5,18.5-18.5,48.5,0,67L64.1,329.8z"/>
		<path class="st140" d="M235.2,347.6c-42.2,0-80.4,17.4-107.8,45.4l74.2,74.2c18.5,18.5,48.5,18.5,67,0l74.2-74.2
			C315.6,365.1,277.4,347.6,235.2,347.6z"/>
	</g>
	<g>
		<path class="st141" d="M64.1,329.5c43.5-44.2,104.1-71.6,171-71.6c67,0,127.5,27.4,171,71.6l38.1-38.1c18.5-18.5,18.5-48.5,0-67
			L268.7,48.7c-18.5-18.5-48.5-18.5-67,0L26,224.3c-18.5,18.5-18.5,48.5,0,67L64.1,329.5z"/>
		<path class="st141" d="M235.2,347.3c-42.2,0-80.4,17.4-107.8,45.4l74.2,74.2c18.5,18.5,48.5,18.5,67,0l74.2-74.2
			C315.6,364.7,277.4,347.3,235.2,347.3z"/>
	</g>
	<g>
		<path class="st142" d="M64.1,329.1c43.5-44.2,104.1-71.6,171-71.6c67,0,127.5,27.4,171,71.6l38.1-38.1c18.5-18.5,18.5-48.5,0-67
			L268.7,48.3c-18.5-18.5-48.5-18.5-67,0L26,223.9c-18.5,18.5-18.5,48.5,0,67L64.1,329.1z"/>
		<path class="st142" d="M235.2,347c-42.2,0-80.4,17.4-107.8,45.4l74.2,74.2c18.5,18.5,48.5,18.5,67,0l74.2-74.2
			C315.6,364.4,277.4,347,235.2,347z"/>
	</g>
	<g>
		<path class="st143" d="M64.1,328.8c43.5-44.2,104.1-71.6,171-71.6c67,0,127.5,27.4,171,71.6l38.1-38.1c18.5-18.5,18.5-48.5,0-67
			L268.7,48c-18.5-18.5-48.5-18.5-67,0L26,223.6c-18.5,18.5-18.5,48.5,0,67L64.1,328.8z"/>
		<path class="st143" d="M235.2,346.6c-42.2,0-80.4,17.4-107.8,45.4l74.2,74.2c18.5,18.5,48.5,18.5,67,0l74.2-74.2
			C315.6,364,277.4,346.6,235.2,346.6z"/>
	</g>
	<g>
		<path class="st144" d="M64.1,328.4c43.5-44.2,104.1-71.6,171-71.6c67,0,127.5,27.4,171,71.6l38.1-38.1c18.5-18.5,18.5-48.5,0-67
			L268.7,47.6c-18.5-18.5-48.5-18.5-67,0L26,223.3c-18.5,18.5-18.5,48.5,0,67L64.1,328.4z"/>
		<path class="st144" d="M235.2,346.3c-42.2,0-80.4,17.4-107.8,45.4l74.2,74.2c18.5,18.5,48.5,18.5,67,0l74.2-74.2
			C315.6,363.7,277.4,346.3,235.2,346.3z"/>
	</g>
	<g>
		<path class="st145" d="M64.1,328.1c43.5-44.2,104.1-71.6,171-71.6c67,0,127.5,27.4,171,71.6l38.1-38.1c18.5-18.5,18.5-48.5,0-67
			L268.7,47.3c-18.5-18.5-48.5-18.5-67,0L26,222.9c-18.5,18.5-18.5,48.5,0,67L64.1,328.1z"/>
		<path class="st145" d="M235.2,345.9c-42.2,0-80.4,17.4-107.8,45.4l74.2,74.2c18.5,18.5,48.5,18.5,67,0l74.2-74.2
			C315.6,363.3,277.4,345.9,235.2,345.9z"/>
	</g>
	<g>
		<path class="st146" d="M64.1,327.7c43.5-44.2,104.1-71.6,171-71.6c67,0,127.5,27.4,171,71.6l38.1-38.1c18.5-18.5,18.5-48.5,0-67
			L268.7,46.9c-18.5-18.5-48.5-18.5-67,0L26,222.6c-18.5,18.5-18.5,48.5,0,67L64.1,327.7z"/>
		<path class="st146" d="M235.2,345.6c-42.2,0-80.4,17.4-107.8,45.4l74.2,74.2c18.5,18.5,48.5,18.5,67,0l74.2-74.2
			C315.6,363,277.4,345.6,235.2,345.6z"/>
	</g>
	<g>
		<path class="st147" d="M64.1,327.4c43.5-44.2,104.1-71.6,171-71.6c67,0,127.5,27.4,171,71.6l38.1-38.1c18.5-18.5,18.5-48.5,0-67
			L268.7,46.6c-18.5-18.5-48.5-18.5-67,0L26,222.2c-18.5,18.5-18.5,48.5,0,67L64.1,327.4z"/>
		<path class="st147" d="M235.2,345.2c-42.2,0-80.4,17.4-107.8,45.4l74.2,74.2c18.5,18.5,48.5,18.5,67,0l74.2-74.2
			C315.6,362.6,277.4,345.2,235.2,345.2z"/>
	</g>
	<g>
		<path class="st148" d="M64.1,327c43.5-44.2,104.1-71.6,171-71.6c67,0,127.5,27.4,171,71.6l38.1-38.1c18.5-18.5,18.5-48.5,0-67
			L268.7,46.2c-18.5-18.5-48.5-18.5-67,0L26,221.9c-18.5,18.5-18.5,48.5,0,67L64.1,327z"/>
		<path class="st148" d="M235.2,344.9c-42.2,0-80.4,17.4-107.8,45.4l74.2,74.2c18.5,18.5,48.5,18.5,67,0l74.2-74.2
			C315.6,362.3,277.4,344.9,235.2,344.9z"/>
	</g>
	<g>
		<path class="st149" d="M64.1,326.7c43.5-44.2,104.1-71.6,171-71.6c67,0,127.5,27.4,171,71.6l38.1-38.1c18.5-18.5,18.5-48.5,0-67
			L268.7,45.9c-18.5-18.5-48.5-18.5-67,0L26,221.5C7.5,240,7.5,270,26,288.5L64.1,326.7z"/>
		<path class="st149" d="M235.2,344.5c-42.2,0-80.4,17.4-107.8,45.4l74.2,74.2c18.5,18.5,48.5,18.5,67,0l74.2-74.2
			C315.6,361.9,277.4,344.5,235.2,344.5z"/>
	</g>
	<g>
		<path class="st150" d="M64.1,326.3c43.5-44.2,104.1-71.6,171-71.6c67,0,127.5,27.4,171,71.6l38.1-38.1c18.5-18.5,18.5-48.5,0-67
			L268.7,45.5c-18.5-18.5-48.5-18.5-67,0L26,221.2c-18.5,18.5-18.5,48.5,0,67L64.1,326.3z"/>
		<path class="st150" d="M235.2,344.2c-42.2,0-80.4,17.4-107.8,45.4l74.2,74.2c18.5,18.5,48.5,18.5,67,0l74.2-74.2
			C315.6,361.6,277.4,344.2,235.2,344.2z"/>
	</g>
	<g>
		<path class="st151" d="M64.1,326c43.5-44.2,104.1-71.6,171-71.6c67,0,127.5,27.4,171,71.6l38.1-38.1c18.5-18.5,18.5-48.5,0-67
			L268.7,45.2c-18.5-18.5-48.5-18.5-67,0L26,220.8c-18.5,18.5-18.5,48.5,0,67L64.1,326z"/>
		<path class="st151" d="M235.2,343.8c-42.2,0-80.4,17.4-107.8,45.4l74.2,74.2c18.5,18.5,48.5,18.5,67,0l74.2-74.2
			C315.6,361.2,277.4,343.8,235.2,343.8z"/>
	</g>
	<g>
		<path class="st152" d="M64.1,325.6c43.5-44.2,104.1-71.6,171-71.6c67,0,127.5,27.4,171,71.6l38.1-38.1c18.5-18.5,18.5-48.5,0-67
			L268.7,44.8c-18.5-18.5-48.5-18.5-67,0L26,220.5C7.5,239,7.5,269,26,287.5L64.1,325.6z"/>
		<path class="st152" d="M235.2,343.5c-42.2,0-80.4,17.4-107.8,45.4l74.2,74.2c18.5,18.5,48.5,18.5,67,0l74.2-74.2
			C315.6,360.9,277.4,343.5,235.2,343.5z"/>
	</g>
	<g>
		<path class="st153" d="M64.1,325.3c43.5-44.2,104.1-71.6,171-71.6c67,0,127.5,27.4,171,71.6l38.1-38.1c18.5-18.5,18.5-48.5,0-67
			L268.7,44.5c-18.5-18.5-48.5-18.5-67,0L26,220.1c-18.5,18.5-18.5,48.5,0,67L64.1,325.3z"/>
		<path class="st153" d="M235.2,343.1c-42.2,0-80.4,17.4-107.8,45.4l74.2,74.2c18.5,18.5,48.5,18.5,67,0l74.2-74.2
			C315.6,360.5,277.4,343.1,235.2,343.1z"/>
	</g>
	<g>
		<path class="st154" d="M64.1,324.9c43.5-44.2,104.1-71.6,171-71.6c67,0,127.5,27.4,171,71.6l38.1-38.1c18.5-18.5,18.5-48.5,0-67
			L268.7,44.2c-18.5-18.5-48.5-18.5-67,0L26,219.8c-18.5,18.5-18.5,48.5,0,67L64.1,324.9z"/>
		<path class="st154" d="M235.2,342.8c-42.2,0-80.4,17.4-107.8,45.4l74.2,74.2c18.5,18.5,48.5,18.5,67,0l74.2-74.2
			C315.6,360.2,277.4,342.8,235.2,342.8z"/>
	</g>
	<g>
		<path class="st155" d="M64.1,324.6c43.5-44.2,104.1-71.6,171-71.6c67,0,127.5,27.4,171,71.6l38.1-38.1c18.5-18.5,18.5-48.5,0-67
			L268.7,43.8c-18.5-18.5-48.5-18.5-67,0L26,219.4c-18.5,18.5-18.5,48.5,0,67L64.1,324.6z"/>
		<path class="st155" d="M235.2,342.4c-42.2,0-80.4,17.4-107.8,45.4l74.2,74.2c18.5,18.5,48.5,18.5,67,0l74.2-74.2
			C315.6,359.8,277.4,342.4,235.2,342.4z"/>
	</g>
	<g>
		<path class="st156" d="M64.1,324.3c43.5-44.2,104.1-71.6,171-71.6c67,0,127.5,27.4,171,71.6l38.1-38.1c18.5-18.5,18.5-48.5,0-67
			L268.7,43.5c-18.5-18.5-48.5-18.5-67,0L26,219.1c-18.5,18.5-18.5,48.5,0,67L64.1,324.3z"/>
		<path class="st156" d="M235.2,342.1c-42.2,0-80.4,17.4-107.8,45.4l74.2,74.2c18.5,18.5,48.5,18.5,67,0l74.2-74.2
			C315.6,359.5,277.4,342.1,235.2,342.1z"/>
	</g>
	<g>
		<path class="st157" d="M64.1,323.9c43.5-44.2,104.1-71.6,171-71.6c67,0,127.5,27.4,171,71.6l38.1-38.1c18.5-18.5,18.5-48.5,0-67
			L268.7,43.1c-18.5-18.5-48.5-18.5-67,0L26,218.7c-18.5,18.5-18.5,48.5,0,67L64.1,323.9z"/>
		<path class="st157" d="M235.2,341.7c-42.2,0-80.4,17.4-107.8,45.4l74.2,74.2c18.5,18.5,48.5,18.5,67,0l74.2-74.2
			C315.6,359.1,277.4,341.7,235.2,341.7z"/>
	</g>
	<g>
		<path class="st158" d="M64.1,323.6c43.5-44.2,104.1-71.6,171-71.6c67,0,127.5,27.4,171,71.6l38.1-38.1c18.5-18.5,18.5-48.5,0-67
			L268.7,42.8c-18.5-18.5-48.5-18.5-67,0L26,218.4c-18.5,18.5-18.5,48.5,0,67L64.1,323.6z"/>
		<path class="st158" d="M235.2,341.4c-42.2,0-80.4,17.4-107.8,45.4l74.2,74.2c18.5,18.5,48.5,18.5,67,0l74.2-74.2
			C315.6,358.8,277.4,341.4,235.2,341.4z"/>
	</g>
	<g>
		<path class="st159" d="M64.1,323.2c43.5-44.2,104.1-71.6,171-71.6c67,0,127.5,27.4,171,71.6l38.1-38.1c18.5-18.5,18.5-48.5,0-67
			L268.7,42.4c-18.5-18.5-48.5-18.5-67,0L26,218c-18.5,18.5-18.5,48.5,0,67L64.1,323.2z"/>
		<path class="st159" d="M235.2,341c-42.2,0-80.4,17.4-107.8,45.4l74.2,74.2c18.5,18.5,48.5,18.5,67,0l74.2-74.2
			C315.6,358.5,277.4,341,235.2,341z"/>
	</g>
	<g>
		<path class="st160" d="M64.1,322.9c43.6-44.3,104.1-71.7,171.1-71.7s127.5,27.4,171,71.6l38.1-38.1c18.5-18.5,18.5-48.5,0-67
			L268.7,42.1c-18.5-18.5-48.5-18.5-67,0L26,217.7c-18.5,18.5-18.5,48.5,0,67L64.1,322.9z"/>
		<path class="st160" d="M235.2,340.7c-42.2,0-80.4,17.4-107.8,45.4l74.2,74.2c18.5,18.5,48.5,18.5,67,0l74.2-74.2
			C315.6,358.1,277.4,340.7,235.2,340.7z"/>
	</g>
	<g>
		<path class="st161" d="M64.1,322.5c43.5-44.2,104.1-71.6,171-71.6c67,0,127.5,27.4,171,71.6l38.1-38.1c18.5-18.5,18.5-48.5,0-67
			L268.7,41.7c-18.5-18.5-48.5-18.5-67,0L26,217.3c-18.5,18.5-18.5,48.5,0,67L64.1,322.5z"/>
		<path class="st161" d="M235.2,340.4c-42.2,0-80.4,17.4-107.8,45.4l74.2,74.2c18.5,18.5,48.5,18.5,67,0l74.2-74.2
			C315.6,357.8,277.4,340.4,235.2,340.4z"/>
	</g>
	<g>
		<path class="st162" d="M64.1,322.2c43.5-44.2,104.1-71.6,171-71.6c67,0,127.5,27.4,171,71.6l38.1-38.1c18.5-18.5,18.5-48.5,0-67
			L268.7,41.4c-18.5-18.5-48.5-18.5-67,0L26,217c-18.5,18.5-18.5,48.5,0,67L64.1,322.2z"/>
		<path class="st162" d="M235.2,340c-42.2,0-80.4,17.4-107.8,45.4l74.2,74.2c18.5,18.5,48.5,18.5,67,0l74.2-74.2
			C315.6,357.4,277.4,340,235.2,340z"/>
	</g>
	<g>
		<path class="st163" d="M64.1,321.8c43.6-44.2,104.1-71.6,171.1-71.6s127.5,27.4,171,71.6l38.1-38.1c18.5-18.5,18.5-48.5,0-67
			L268.7,41c-18.5-18.5-48.5-18.5-67,0L26,216.7c-18.5,18.5-18.5,48.5,0,67L64.1,321.8z"/>
		<path class="st163" d="M235.2,339.7c-42.2,0-80.4,17.4-107.8,45.4l74.2,74.2c18.5,18.5,48.5,18.5,67,0l74.2-74.2
			C315.6,357.1,277.4,339.7,235.2,339.7z"/>
	</g>
	<g>
		<path class="st164" d="M64.1,321.5c43.5-44.2,104.1-71.6,171-71.6c67,0,127.5,27.4,171,71.6l38.1-38.1c18.5-18.5,18.5-48.5,0-67
			L268.7,40.7c-18.5-18.5-48.5-18.5-67,0L26,216.3c-18.5,18.5-18.5,48.5,0,67L64.1,321.5z"/>
		<path class="st164" d="M235.2,339.3c-42.2,0-80.4,17.4-107.8,45.4l74.2,74.2c18.5,18.5,48.5,18.5,67,0l74.2-74.2
			C315.6,356.7,277.4,339.3,235.2,339.3z"/>
	</g>
	<g>
		<path class="st165" d="M64.1,321.1c43.5-44.2,104.1-71.6,171-71.6c67,0,127.5,27.4,171,71.6l38.1-38.1c18.5-18.5,18.5-48.5,0-67
			L268.7,40.3c-18.5-18.5-48.5-18.5-67,0L26,216c-18.5,18.5-18.5,48.5,0,67L64.1,321.1z"/>
		<path class="st165" d="M235.2,339c-42.2,0-80.4,17.4-107.8,45.4l74.2,74.2c18.5,18.5,48.5,18.5,67,0l74.2-74.2
			C315.6,356.4,277.4,339,235.2,339z"/>
	</g>
	<g>
		<path class="st166" d="M64.1,320.8c43.5-44.2,104.1-71.6,171-71.6c67,0,127.5,27.4,171,71.6l38.1-38.1c18.5-18.5,18.5-48.5,0-67
			L268.7,40c-18.5-18.5-48.5-18.5-67,0L26,215.6c-18.5,18.5-18.5,48.5,0,67L64.1,320.8z"/>
		<path class="st166" d="M235.2,338.6c-42.2,0-80.4,17.4-107.8,45.4l74.2,74.2c18.5,18.5,48.5,18.5,67,0l74.2-74.2
			C315.6,356,277.4,338.6,235.2,338.6z"/>
	</g>
	<g>
		<path class="st167" d="M64.1,320.4c43.5-44.2,104.1-71.6,171-71.6c67,0,127.5,27.4,171,71.6l38.1-38.1c18.5-18.5,18.5-48.5,0-67
			L268.7,39.6c-18.5-18.5-48.5-18.5-67,0L26,215.3c-18.5,18.5-18.5,48.5,0,67L64.1,320.4z"/>
		<path class="st167" d="M235.2,338.3c-42.2,0-80.4,17.4-107.8,45.4l74.2,74.2c18.5,18.5,48.5,18.5,67,0l74.2-74.2
			C315.6,355.7,277.4,338.3,235.2,338.3z"/>
	</g>
	<g>
		<path class="st168" d="M64.1,320.1c43.5-44.2,104.1-71.6,171-71.6c67,0,127.5,27.4,171,71.6l38.1-38.1c18.5-18.5,18.5-48.5,0-67
			L268.7,39.3c-18.5-18.5-48.5-18.5-67,0L26,214.9c-18.5,18.5-18.5,48.5,0,67L64.1,320.1z"/>
		<path class="st168" d="M235.2,337.9c-42.2,0-80.4,17.4-107.8,45.4l74.2,74.2c18.5,18.5,48.5,18.5,67,0l74.2-74.2
			C315.6,355.3,277.4,337.9,235.2,337.9z"/>
	</g>
	<g>
		<path class="st169" d="M64.1,319.7c43.5-44.2,104.1-71.6,171-71.6c67,0,127.5,27.4,171,71.6l38.1-38.1c18.5-18.5,18.5-48.5,0-67
			L268.7,38.9c-18.5-18.5-48.5-18.5-67,0L26,214.6c-18.5,18.5-18.5,48.5,0,67L64.1,319.7z"/>
		<path class="st169" d="M235.2,337.6c-42.2,0-80.4,17.4-107.8,45.4l74.2,74.2c18.5,18.5,48.5,18.5,67,0l74.2-74.2
			C315.6,355,277.4,337.6,235.2,337.6z"/>
	</g>
	<g>
		<path class="st170" d="M64.1,319.4c43.5-44.2,104.1-71.6,171-71.6c67,0,127.5,27.4,171,71.6l38.1-38.1c18.5-18.5,18.5-48.5,0-67
			L268.7,38.6c-18.5-18.5-48.5-18.5-67,0L26,214.2c-18.5,18.5-18.5,48.5,0,67L64.1,319.4z"/>
		<path class="st170" d="M235.2,337.2c-42.2,0-80.4,17.4-107.8,45.4l74.2,74.2c18.5,18.5,48.5,18.5,67,0l74.2-74.2
			C315.6,354.6,277.4,337.2,235.2,337.2z"/>
	</g>
	<g>
		<path class="st171" d="M64.1,319c43.5-44.2,104.1-71.6,171-71.6c67,0,127.5,27.4,171,71.6l38.1-38.1c18.5-18.5,18.5-48.5,0-67
			L268.7,38.2c-18.5-18.5-48.5-18.5-67,0L26,213.9c-18.5,18.5-18.5,48.5,0,67L64.1,319z"/>
		<path class="st171" d="M235.2,336.9c-42.2,0-80.4,17.4-107.8,45.4l74.2,74.2c18.5,18.5,48.5,18.5,67,0l74.2-74.2
			C315.6,354.3,277.4,336.9,235.2,336.9z"/>
	</g>
	<g>
		<path class="st172" d="M64.1,318.7c43.5-44.2,104.1-71.6,171-71.6c67,0,127.5,27.4,171,71.6l38.1-38.1c18.5-18.5,18.5-48.5,0-67
			L268.7,37.9c-18.5-18.5-48.5-18.5-67,0L26,213.5C7.5,232,7.5,262,26,280.5L64.1,318.7z"/>
		<path class="st172" d="M235.2,336.5c-42.2,0-80.4,17.4-107.8,45.4l74.2,74.2c18.5,18.5,48.5,18.5,67,0l74.2-74.2
			C315.6,353.9,277.4,336.5,235.2,336.5z"/>
	</g>
	<g>
		<path class="st173" d="M64.1,318.3c43.5-44.2,104.1-71.6,171-71.6c67,0,127.5,27.4,171,71.6l38.1-38.1c18.5-18.5,18.5-48.5,0-67
			L268.7,37.6c-18.5-18.5-48.5-18.5-67,0L26,213.2c-18.5,18.5-18.5,48.5,0,67L64.1,318.3z"/>
		<path class="st173" d="M235.2,336.2c-42.2,0-80.4,17.4-107.8,45.4l74.2,74.2c18.5,18.5,48.5,18.5,67,0l74.2-74.2
			C315.6,353.6,277.4,336.2,235.2,336.2z"/>
	</g>
	<g>
		<path class="st174" d="M64.1,318c43.5-44.2,104.1-71.6,171-71.6c67,0,127.5,27.4,171,71.6l38.1-38.1c18.5-18.5,18.5-48.5,0-67
			L268.7,37.2c-18.5-18.5-48.5-18.5-67,0L26,212.8c-18.5,18.5-18.5,48.5,0,67L64.1,318z"/>
		<path class="st174" d="M235.2,335.8c-42.2,0-80.4,17.4-107.8,45.4l74.2,74.2c18.5,18.5,48.5,18.5,67,0l74.2-74.2
			C315.6,353.2,277.4,335.8,235.2,335.8z"/>
	</g>
	<g>
		<path class="st175" d="M64.1,317.7c43.5-44.2,104.1-71.6,171-71.6c67,0,127.5,27.4,171,71.6l38.1-38.1c18.5-18.5,18.5-48.5,0-67
			L268.7,36.9c-18.5-18.5-48.5-18.5-67,0L26,212.5C7.5,231,7.5,261,26,279.5L64.1,317.7z"/>
		<path class="st175" d="M235.2,335.5c-42.2,0-80.4,17.4-107.8,45.4l74.2,74.2c18.5,18.5,48.5,18.5,67,0l74.2-74.2
			C315.6,352.9,277.4,335.5,235.2,335.5z"/>
	</g>
	<g>
		<path class="st176" d="M64.1,317.3c43.5-44.2,104.1-71.6,171-71.6c67,0,127.5,27.4,171,71.6l38.1-38.1c18.5-18.5,18.5-48.5,0-67
			L268.7,36.5c-18.5-18.5-48.5-18.5-67,0L26,212.1c-18.5,18.5-18.5,48.5,0,67L64.1,317.3z"/>
		<path class="st176" d="M235.2,335.1c-42.2,0-80.4,17.4-107.8,45.4l74.2,74.2c18.5,18.5,48.5,18.5,67,0l74.2-74.2
			C315.6,352.5,277.4,335.1,235.2,335.1z"/>
	</g>
	<g>
		<path class="st177" d="M64.1,317c43.5-44.2,104.1-71.6,171-71.6c67,0,127.5,27.4,171,71.6l38.1-38.1c18.5-18.5,18.5-48.5,0-67
			L268.7,36.2c-18.5-18.5-48.5-18.5-67,0L26,211.8c-18.5,18.5-18.5,48.5,0,67L64.1,317z"/>
		<path class="st177" d="M235.2,334.8c-42.2,0-80.4,17.4-107.8,45.4l74.2,74.2c18.5,18.5,48.5,18.5,67,0l74.2-74.2
			C315.6,352.2,277.4,334.8,235.2,334.8z"/>
	</g>
	<g>
		<path class="st178" d="M64.1,316.6c43.5-44.2,104.1-71.6,171-71.6c67,0,127.5,27.4,171,71.6l38.1-38.1c18.5-18.5,18.5-48.5,0-67
			L268.7,35.8c-18.5-18.5-48.5-18.5-67,0L26,211.4c-18.5,18.5-18.5,48.5,0,67L64.1,316.6z"/>
		<path class="st178" d="M235.2,334.4c-42.2,0-80.4,17.4-107.8,45.4l74.2,74.2c18.5,18.5,48.5,18.5,67,0l74.2-74.2
			C315.6,351.9,277.4,334.4,235.2,334.4z"/>
	</g>
	<g>
		<path class="st179" d="M64.1,316.3c43.5-44.2,104.1-71.6,171-71.6c67,0,127.5,27.4,171,71.6l38.1-38.1c18.5-18.5,18.5-48.5,0-67
			L268.7,35.5c-18.5-18.5-48.5-18.5-67,0L26,211.1c-18.5,18.5-18.5,48.5,0,67L64.1,316.3z"/>
		<path class="st179" d="M235.2,334.1c-42.2,0-80.4,17.4-107.8,45.4l74.2,74.2c18.5,18.5,48.5,18.5,67,0l74.2-74.2
			C315.6,351.5,277.4,334.1,235.2,334.1z"/>
	</g>
	<g>
		<path class="st180" d="M64.1,315.9c43.5-44.2,104.1-71.6,171-71.6c67,0,127.5,27.4,171,71.6l38.1-38.1c18.5-18.5,18.5-48.5,0-67
			L268.7,35.1c-18.5-18.5-48.5-18.5-67,0L26,210.7c-18.5,18.5-18.5,48.5,0,67L64.1,315.9z"/>
		<path class="st180" d="M235.2,333.8c-42.2,0-80.4,17.4-107.8,45.4l74.2,74.2c18.5,18.5,48.5,18.5,67,0l74.2-74.2
			C315.6,351.2,277.4,333.8,235.2,333.8z"/>
	</g>
	<g>
		<path class="st181" d="M64.1,315.6c43.5-44.2,104.1-71.6,171-71.6c67,0,127.5,27.4,171,71.6l38.1-38.1c18.5-18.5,18.5-48.5,0-67
			L268.7,34.8c-18.5-18.5-48.5-18.5-67,0L26,210.4c-18.5,18.5-18.5,48.5,0,67L64.1,315.6z"/>
		<path class="st181" d="M235.2,333.4c-42.2,0-80.4,17.4-107.8,45.4l74.2,74.2c18.5,18.5,48.5,18.5,67,0l74.2-74.2
			C315.6,350.8,277.4,333.4,235.2,333.4z"/>
	</g>
	<g>
		<path class="st182" d="M64.1,315.2c43.5-44.2,104.1-71.6,171-71.6c67,0,127.5,27.4,171,71.6l38.1-38.1c18.5-18.5,18.5-48.5,0-67
			L268.7,34.4c-18.5-18.5-48.5-18.5-67,0L26,210.1c-18.5,18.5-18.5,48.5,0,67L64.1,315.2z"/>
		<path class="st182" d="M235.2,333.1c-42.2,0-80.4,17.4-107.8,45.4l74.2,74.2c18.5,18.5,48.5,18.5,67,0l74.2-74.2
			C315.6,350.5,277.4,333.1,235.2,333.1z"/>
	</g>
	<g>
		<path class="st183" d="M64.1,314.9c43.6-44.2,104.1-71.7,171.1-71.7s127.5,27.4,171,71.6l38.1-38.1c18.5-18.5,18.5-48.5,0-67
			L268.7,34.1c-18.5-18.5-48.5-18.5-67,0L26,209.7c-18.5,18.5-18.5,48.5,0,67L64.1,314.9z"/>
		<path class="st183" d="M235.2,332.7c-42.2,0-80.4,17.4-107.8,45.4l74.2,74.2c18.5,18.5,48.5,18.5,67,0l74.2-74.2
			C315.6,350.1,277.4,332.7,235.2,332.7z"/>
	</g>
	<g>
		<path class="st184" d="M64.1,314.5c43.5-44.2,104.1-71.6,171-71.6c67,0,127.5,27.4,171,71.6l38.1-38.1c18.5-18.5,18.5-48.5,0-67
			L268.7,33.7c-18.5-18.5-48.5-18.5-67,0L26,209.4c-18.5,18.5-18.5,48.5,0,67L64.1,314.5z"/>
		<path class="st184" d="M235.2,332.4c-42.2,0-80.4,17.4-107.8,45.4l74.2,74.2c18.5,18.5,48.5,18.5,67,0l74.2-74.2
			C315.6,349.8,277.4,332.4,235.2,332.4z"/>
	</g>
	<g>
		<path class="st185" d="M64.1,314.2c43.5-44.2,104.1-71.6,171-71.6c67,0,127.5,27.4,171,71.6l38.1-38.1c18.5-18.5,18.5-48.5,0-67
			L268.7,33.4c-18.5-18.5-48.5-18.5-67,0L26,209c-18.5,18.5-18.5,48.5,0,67L64.1,314.2z"/>
		<path class="st185" d="M235.2,332c-42.2,0-80.4,17.4-107.8,45.4l74.2,74.2c18.5,18.5,48.5,18.5,67,0l74.2-74.2
			C315.6,349.4,277.4,332,235.2,332z"/>
	</g>
	<g>
		<path class="st186" d="M64.1,313.8c43.6-44.2,104.1-71.6,171.1-71.6s127.5,27.4,171,71.6l38.1-38.1c18.5-18.5,18.5-48.5,0-67
			L268.7,33c-18.5-18.5-48.5-18.5-67,0L26,208.7c-18.5,18.5-18.5,48.5,0,67L64.1,313.8z"/>
		<path class="st186" d="M235.2,331.7c-42.2,0-80.4,17.4-107.8,45.4l74.2,74.2c18.5,18.5,48.5,18.5,67,0l74.2-74.2
			C315.6,349.1,277.4,331.7,235.2,331.7z"/>
	</g>
	<g>
		<path class="st187" d="M64.1,313.5c43.5-44.2,104.1-71.6,171-71.6c67,0,127.5,27.4,171,71.6l38.1-38.1c18.5-18.5,18.5-48.5,0-67
			L268.7,32.7c-18.5-18.5-48.5-18.5-67,0L26,208.3c-18.5,18.5-18.5,48.5,0,67L64.1,313.5z"/>
		<path class="st187" d="M235.2,331.3c-42.2,0-80.4,17.4-107.8,45.4l74.2,74.2c18.5,18.5,48.5,18.5,67,0l74.2-74.2
			C315.6,348.7,277.4,331.3,235.2,331.3z"/>
	</g>
	<g>
		<path class="st188" d="M64.1,313.1c43.5-44.2,104.1-71.6,171-71.6c67,0,127.5,27.4,171,71.6l38.1-38.1c18.5-18.5,18.5-48.5,0-67
			L268.7,32.3c-18.5-18.5-48.5-18.5-67,0L26,208c-18.5,18.5-18.5,48.5,0,67L64.1,313.1z"/>
		<path class="st188" d="M235.2,331c-42.2,0-80.4,17.4-107.8,45.4l74.2,74.2c18.5,18.5,48.5,18.5,67,0l74.2-74.2
			C315.6,348.4,277.4,331,235.2,331z"/>
	</g>
	<g>
		<path class="st189" d="M64.1,312.8c43.5-44.2,104.1-71.6,171-71.6c67,0,127.5,27.4,171,71.6l38.1-38.1c18.5-18.5,18.5-48.5,0-67
			L268.7,32c-18.5-18.5-48.5-18.5-67,0L26,207.6c-18.5,18.5-18.5,48.5,0,67L64.1,312.8z"/>
		<path class="st189" d="M235.2,330.6c-42.2,0-80.4,17.4-107.8,45.4l74.2,74.2c18.5,18.5,48.5,18.5,67,0l74.2-74.2
			C315.6,348,277.4,330.6,235.2,330.6z"/>
	</g>
	<g>
		<path class="st190" d="M64.1,312.4c43.5-44.2,104.1-71.6,171-71.6c67,0,127.5,27.4,171,71.6l38.1-38.1c18.5-18.5,18.5-48.5,0-67
			L268.7,31.6c-18.5-18.5-48.5-18.5-67,0L26,207.3c-18.5,18.5-18.5,48.5,0,67L64.1,312.4z"/>
		<path class="st190" d="M235.2,330.3c-42.2,0-80.4,17.4-107.8,45.4l74.2,74.2c18.5,18.5,48.5,18.5,67,0l74.2-74.2
			C315.6,347.7,277.4,330.3,235.2,330.3z"/>
	</g>
	<g>
		<path class="st191" d="M64.1,312.1c43.5-44.2,104.1-71.6,171-71.6c67,0,127.5,27.4,171,71.6l38.1-38.1c18.5-18.5,18.5-48.5,0-67
			L268.7,31.3c-18.5-18.5-48.5-18.5-67,0L26,206.9c-18.5,18.5-18.5,48.5,0,67L64.1,312.1z"/>
		<path class="st191" d="M235.2,329.9c-42.2,0-80.4,17.4-107.8,45.4l74.2,74.2c18.5,18.5,48.5,18.5,67,0l74.2-74.2
			C315.6,347.3,277.4,329.9,235.2,329.9z"/>
	</g>
	<g>
		<path class="st192" d="M64.1,311.7c43.5-44.2,104.1-71.6,171-71.6c67,0,127.5,27.4,171,71.6l38.1-38.1c18.5-18.5,18.5-48.5,0-67
			L268.7,31c-18.5-18.5-48.5-18.5-67,0L26,206.6c-18.5,18.5-18.5,48.5,0,67L64.1,311.7z"/>
		<path class="st192" d="M235.2,329.6c-42.2,0-80.4,17.4-107.8,45.4l74.2,74.2c18.5,18.5,48.5,18.5,67,0l74.2-74.2
			C315.6,347,277.4,329.6,235.2,329.6z"/>
	</g>
	<g>
		<path class="st193" d="M64.1,311.4c43.5-44.2,104.1-71.6,171-71.6c67,0,127.5,27.4,171,71.6l38.1-38.1c18.5-18.5,18.5-48.5,0-67
			L268.7,30.6c-18.5-18.5-48.5-18.5-67,0L26,206.2c-18.5,18.5-18.5,48.5,0,67L64.1,311.4z"/>
		<path class="st193" d="M235.2,329.2c-42.2,0-80.4,17.4-107.8,45.4l74.2,74.2c18.5,18.5,48.5,18.5,67,0l74.2-74.2
			C315.6,346.6,277.4,329.2,235.2,329.2z"/>
	</g>
	<g>
		<path class="st194" d="M64.1,311.1c43.5-44.2,104.1-71.6,171-71.6c67,0,127.5,27.4,171,71.6l38.1-38.1c18.5-18.5,18.5-48.5,0-67
			L268.7,30.3c-18.5-18.5-48.5-18.5-67,0L26,205.9c-18.5,18.5-18.5,48.5,0,67L64.1,311.1z"/>
		<path class="st194" d="M235.2,328.9c-42.2,0-80.4,17.4-107.8,45.4l74.2,74.2c18.5,18.5,48.5,18.5,67,0l74.2-74.2
			C315.6,346.3,277.4,328.9,235.2,328.9z"/>
	</g>
	<g>
		<path class="st195" d="M64.1,310.7c43.5-44.2,104.1-71.6,171-71.6c67,0,127.5,27.4,171,71.6l38.1-38.1c18.5-18.5,18.5-48.5,0-67
			L268.7,29.9c-18.5-18.5-48.5-18.5-67,0L26,205.5C7.5,224,7.5,254,26,272.5L64.1,310.7z"/>
		<path class="st195" d="M235.2,328.5c-42.2,0-80.4,17.4-107.8,45.4l74.2,74.2c18.5,18.5,48.5,18.5,67,0l74.2-74.2
			C315.6,345.9,277.4,328.5,235.2,328.5z"/>
	</g>
	<g>
		<path class="st196" d="M64.1,310.4c43.5-44.2,104.1-71.6,171-71.6c67,0,127.5,27.4,171,71.6l38.1-38.1c18.5-18.5,18.5-48.5,0-67
			L268.7,29.6c-18.5-18.5-48.5-18.5-67,0L26,205.2c-18.5,18.5-18.5,48.5,0,67L64.1,310.4z"/>
		<path class="st196" d="M235.2,328.2c-42.2,0-80.4,17.4-107.8,45.4l74.2,74.2c18.5,18.5,48.5,18.5,67,0l74.2-74.2
			C315.6,345.6,277.4,328.2,235.2,328.2z"/>
	</g>
	<g>
		<path class="st197" d="M64.1,310c43.5-44.2,104.1-71.6,171-71.6c67,0,127.5,27.4,171,71.6l38.1-38.1c18.5-18.5,18.5-48.5,0-67
			L268.7,29.2c-18.5-18.5-48.5-18.5-67,0L26,204.8c-18.5,18.5-18.5,48.5,0,67L64.1,310z"/>
		<path class="st197" d="M235.2,327.8c-42.2,0-80.4,17.4-107.8,45.4l74.2,74.2c18.5,18.5,48.5,18.5,67,0l74.2-74.2
			C315.6,345.3,277.4,327.8,235.2,327.8z"/>
	</g>
	<g>
		<path class="st198" d="M64.1,309.7c43.5-44.2,104.1-71.6,171-71.6c67,0,127.5,27.4,171,71.6l38.1-38.1c18.5-18.5,18.5-48.5,0-67
			L268.7,28.9c-18.5-18.5-48.5-18.5-67,0L26,204.5C7.5,223,7.5,253,26,271.5L64.1,309.7z"/>
		<path class="st198" d="M235.2,327.5c-42.2,0-80.4,17.4-107.8,45.4l74.2,74.2c18.5,18.5,48.5,18.5,67,0l74.2-74.2
			C315.6,344.9,277.4,327.5,235.2,327.5z"/>
	</g>
	<g>
		<path class="st199" d="M64.1,309.3c43.5-44.2,104.1-71.6,171-71.6c67,0,127.5,27.4,171,71.6l38.1-38.1c18.5-18.5,18.5-48.5,0-67
			L268.7,28.5c-18.5-18.5-48.5-18.5-67,0L26,204.1c-18.5,18.5-18.5,48.5,0,67L64.1,309.3z"/>
		<path class="st199" d="M235.2,327.2c-42.2,0-80.4,17.4-107.8,45.4l74.2,74.2c18.5,18.5,48.5,18.5,67,0l74.2-74.2
			C315.6,344.6,277.4,327.2,235.2,327.2z"/>
	</g>
	<g>
		<path class="st200" d="M64.1,309c43.5-44.2,104.1-71.6,171-71.6c67,0,127.5,27.4,171,71.6l38.1-38.1c18.5-18.5,18.5-48.5,0-67
			L268.7,28.2c-18.5-18.5-48.5-18.5-67,0L26,203.8c-18.5,18.5-18.5,48.5,0,67L64.1,309z"/>
		<path class="st200" d="M235.2,326.8c-42.2,0-80.4,17.4-107.8,45.4l74.2,74.2c18.5,18.5,48.5,18.5,67,0l74.2-74.2
			C315.6,344.2,277.4,326.8,235.2,326.8z"/>
	</g>
	<g>
		<path class="st201" d="M64.1,308.6c43.5-44.2,104.1-71.6,171-71.6c67,0,127.5,27.4,171,71.6l38.1-38.1c18.5-18.5,18.5-48.5,0-67
			L268.7,27.8c-18.5-18.5-48.5-18.5-67,0L26,203.5C7.5,222,7.5,252,26,270.5L64.1,308.6z"/>
		<path class="st201" d="M235.2,326.5c-42.2,0-80.4,17.4-107.8,45.4l74.2,74.2c18.5,18.5,48.5,18.5,67,0l74.2-74.2
			C315.6,343.9,277.4,326.5,235.2,326.5z"/>
	</g>
	<g>
		<path d="M64.1,308.3c43.5-44.2,104.1-71.6,171-71.6c67,0,127.5,27.4,171,71.6l38.1-38.1c18.5-18.5,18.5-48.5,0-67L268.7,27.5
			c-18.5-18.5-48.5-18.5-67,0L26,203.1c-18.5,18.5-18.5,48.5,0,67L64.1,308.3z"/>
		<path d="M235.2,326.1c-42.2,0-80.4,17.4-107.8,45.4l74.2,74.2c18.5,18.5,48.5,18.5,67,0l74.2-74.2
			C315.6,343.5,277.4,326.1,235.2,326.1z"/>
	</g>
</g>
<linearGradient id="SVGID_1_" gradientUnits="userSpaceOnUse" x1="235.15" y1="1155.0516" x2="235.15" y2="717.1219" gradientTransform="matrix(1 0 0 1 0 -699.6097)">
	<stop  offset="0" style="stop-color:#F93939"/>
	<stop  offset="1" style="stop-color:#F9AC57"/>
</linearGradient>
<path class="st202" d="M26.1,270.2c-18.5-18.5-18.5-48.5,0-67L201.6,27.6c18.5-18.5,48.5-18.5,67,0l175.6,175.6
	c18.5,18.5,18.5,48.5,0,67l-38,38.1c-43.5-44.2-104.1-71.6-171-71.6c-67,0-127.5,27.4-171,71.6L26.1,270.2z M235.2,326.1
	c-42.2,0-80.4,17.4-107.8,45.4l74.2,74.2c18.5,18.5,48.5,18.5,67,0l74.2-74.2C315.6,343.5,277.4,326.1,235.2,326.1z"/>
</svg>
